<svg width="207" height="267" viewBox="0 0 207 267" fill="none" xmlns="http://www.w3.org/2000/svg">
<path d="M106 171.046L180.087 191.992L106 218.037L32.0142 191.992L106 171.046Z" fill="#3972FF"/>
<path d="M32 200.848V191.978L106 218.018V228.015L32 200.848Z" fill="#6793FF"/>
<path d="M180.102 200.848V191.978L106 218.018V228.015L180.102 200.848Z" fill="#1655F8"/>
<path d="M106 139.059L180.087 160.004L106 186.05L32.0142 160.004L106 139.059Z" fill="#4BDDFE"/>
<path d="M106 147.236L153.5 160.231L106 176.224L59 160.231L106 147.236Z" fill="#92EDFF"/>
<path d="M32 168.86V159.99L106 186.031V196.027L32 168.86Z" fill="#2ED8F9"/>
<path d="M106 147.444V145.695L155 159.939L152 160.782L106 147.444Z" fill="#15CAED"/>
<path d="M106 147.444V145.695L57 159.939L60 160.782L106 147.444Z" fill="#15CAED"/>
<path d="M180.102 168.86V159.99L106 186.031V196.027L180.102 168.86Z" fill="#15CAED"/>
<path d="M0 0H207L179.898 159.939H32.1433L0 0Z" fill="url(#paint0_linear_1290_5783)" fill-opacity="0.8"/>
<path d="M99.5 73.7406C99.5 69.522 103.739 66.6207 107.671 68.1473L133.171 78.0459C135.479 78.9419 137 81.1635 137 83.6393V116.257C137 120.476 132.761 123.377 128.829 121.85L103.329 111.952C101.021 111.056 99.5 108.834 99.5 106.358V73.7406Z" fill="#35D0EE"/>
<path d="M84.25 77.2047C84.25 72.9861 88.4885 70.0848 92.4212 71.6114L117.921 81.5101C120.229 82.406 121.75 84.6276 121.75 87.1034V119.721C121.75 123.94 117.511 126.841 113.579 125.315L88.0787 115.416C85.7707 114.52 84.25 112.298 84.25 109.823V77.2047Z" fill="#1655F8" fill-opacity="0.5"/>
<path d="M69 81.8239C69 77.6053 73.2385 74.7039 77.1712 76.2305L102.671 86.1292C104.979 87.0251 106.5 89.2467 106.5 91.7226V124.34C106.5 128.559 102.261 131.46 98.3288 129.934L72.8287 120.035C70.5207 119.139 69 116.918 69 114.442V81.8239Z" fill="#1655F8"/>
<defs>
<linearGradient id="paint0_linear_1290_5783" x1="103.5" y1="20.2028" x2="103.5" y2="159.939" gradientUnits="userSpaceOnUse">
<stop stop-color="#3176FB" stop-opacity="0"/>
<stop offset="1" stop-color="#95C8F8" stop-opacity="0.19"/>
</linearGradient>
</defs>
</svg>
