<svg width="207" height="267" viewBox="0 0 207 267" fill="none" xmlns="http://www.w3.org/2000/svg">
<path d="M106 171.046L180.087 191.992L106 218.037L32.0142 191.992L106 171.046Z" fill="#3972FF"/>
<path d="M32 200.848V191.978L106 218.018V228.015L32 200.848Z" fill="#6793FF"/>
<path d="M180.102 200.848V191.978L106 218.018V228.015L180.102 200.848Z" fill="#1655F8"/>
<path d="M106 139.059L180.087 160.004L106 186.05L32.0142 160.004L106 139.059Z" fill="#CDF7FF"/>
<path d="M106 147.444L153.5 160.439L106 176.433L59 160.439L106 147.444Z" fill="#42E0FF"/>
<path d="M32 168.86V159.99L106 186.031V196.027L32 168.86Z" fill="#42E0FF"/>
<path d="M106 147.444V145.695L155 159.939L152 160.782L106 147.444Z" fill="#42E0FF"/>
<path d="M106 147.444V145.695L57 159.939L60 160.782L106 147.444Z" fill="#42E0FF"/>
<path d="M180.102 168.86V159.99L106 186.031V196.027L180.102 168.86Z" fill="#15CAED"/>
<path d="M0 0H207L179.898 159.939H32.1433L0 0Z" fill="url(#paint0_linear_1290_5828)" fill-opacity="0.8"/>
<path d="M110.074 77.2752C98.9611 67.7875 85.7095 71.2363 80.4763 84.9787C75.2432 98.721 80.01 117.553 91.1228 127.041C102.236 136.528 115.487 133.079 120.72 119.337C125.953 105.594 121.187 86.7629 110.074 77.2752ZM107.168 85.2765C114.663 91.6762 117.878 104.379 114.348 113.648C110.819 122.917 101.88 125.244 94.3847 118.845C86.8888 112.445 83.6734 99.7422 87.2033 90.4727C90.7332 81.2034 99.672 78.8769 107.168 85.2765Z" fill="#1655F8"/>
<ellipse cx="10.6619" cy="10.7298" rx="10.6619" ry="10.7298" transform="matrix(-0.760528 -0.649305 -0.355878 0.934532 112.523 99.0532)" fill="#35D0EE"/>
<defs>
<linearGradient id="paint0_linear_1290_5828" x1="103.5" y1="20.2028" x2="103.5" y2="159.939" gradientUnits="userSpaceOnUse">
<stop stop-color="#3176FB" stop-opacity="0"/>
<stop offset="1" stop-color="#95C8F8" stop-opacity="0.19"/>
</linearGradient>
</defs>
</svg>
