<svg xmlns="http://www.w3.org/2000/svg" width="25" height="25" viewBox="0 0 25 25" fill="none">
  <path d="M21.3226 5.13795C22.2579 6.07325 23.0424 6.97855 23.6755 7.86295C25.9226 12.013 24.8014 15.8229 20.3119 20.3123C15.8228 24.8017 12.0125 25.9229 7.86278 23.6754C6.97878 23.0428 6.07346 22.2587 5.13775 21.3234C-0.646178 15.5391 -0.646178 10.9218 5.13775 5.13795C10.9217 -0.645917 15.539 -0.645917 21.323 5.13795H21.3226ZM11.6561 5.73228C11.4569 5.73103 11.2646 5.80514 11.1178 5.93974C10.971 6.07435 10.8805 6.25948 10.8645 6.45802L10.8621 6.51682L10.795 17.4752C10.6517 18.4713 10.5803 19.5554 10.5787 20.7279C10.5786 20.8745 10.6193 21.0183 10.6963 21.1431C10.7733 21.2679 10.8836 21.3688 11.0147 21.4344C11.1458 21.5001 11.2927 21.5279 11.4387 21.5148C11.5848 21.5016 11.7243 21.4481 11.8416 21.3601C11.9808 21.308 12.1026 21.2176 12.1928 21.0994C12.283 20.9812 12.338 20.84 12.3515 20.6919L12.3546 20.6253L12.3732 17.596C12.6715 15.6133 13.2781 14.0778 14.1791 12.9846C15.5185 11.3595 17.2408 10.3918 19.3805 10.0643C19.5875 10.0326 19.7733 9.92003 19.8973 9.75132C20.0212 9.58262 20.073 9.37159 20.0414 9.16467C20.0097 8.95775 19.8971 8.77188 19.7284 8.64795C19.5597 8.52402 19.3487 8.47218 19.1418 8.50384C16.6208 8.88941 14.5493 10.054 12.9608 11.9806C12.7623 12.2214 12.576 12.4779 12.4028 12.749L12.4407 6.52629L12.4387 6.4671C12.425 6.2685 12.3367 6.08243 12.1916 5.94616C12.0464 5.80989 11.8552 5.73349 11.6561 5.73228Z" fill="url(#paint0_linear_1115_1231)"/>
  <defs>
    <linearGradient id="paint0_linear_1115_1231" x1="12.7998" y1="0.800049" x2="12.7998" y2="24.8" gradientUnits="userSpaceOnUse">
      <stop stop-color="#177FFF"/>
      <stop offset="1" stop-color="#18C0FD"/>
    </linearGradient>
  </defs>
</svg>