<svg xmlns="http://www.w3.org/2000/svg" width="23" height="22" viewBox="0 0 23 22" fill="none">
  <path d="M22.288 13.2038V14.7439C22.288 15.6255 21.616 16.2858 20.72 16.2858H12.768V19.9166H16.8C17.248 19.9166 17.584 20.2476 17.584 20.6867C17.584 21.1274 17.248 21.4567 16.8 21.4567H5.6C5.152 21.4567 4.816 21.1257 4.816 20.6867C4.816 20.2459 5.152 19.9166 5.6 19.9166H9.52V16.2858H1.568C0.672 16.2858 0 15.6238 0 14.7439V13.2038H22.288ZM20.832 0.550049C21.728 0.550049 22.4 1.21035 22.4 2.09017V11.5539H0V2.09017C0 1.21209 0.672 0.550049 1.568 0.550049H20.832ZM5.3232 3.71915C4.9952 3.71915 4.688 3.7749 4.4016 3.88466C4.13314 3.98317 3.89351 4.15752 3.7072 4.38991C3.52705 4.62486 3.43252 4.92374 3.4416 5.22966C3.4416 5.53455 3.5152 5.78194 3.664 5.96836C3.80696 6.15232 3.9879 6.2968 4.192 6.38998C4.3984 6.48232 4.6624 6.57465 4.9856 6.66873C5.2064 6.72971 5.3776 6.78546 5.4976 6.83424C5.6192 6.88303 5.7216 6.944 5.8016 7.01892C5.8816 7.09384 5.9232 7.18966 5.9232 7.30464C5.92454 7.37113 5.90837 7.43664 5.87662 7.49344C5.84487 7.55025 5.79885 7.59597 5.744 7.62521C5.59887 7.70468 5.4375 7.74246 5.2752 7.73497C5.03837 7.74159 4.80438 7.67774 4.5984 7.5503C4.45703 7.45909 4.33665 7.33396 4.2464 7.18443L4.1632 7.02763L3.232 7.5503C3.29718 7.74592 3.39754 7.92543 3.52722 8.0783C3.65689 8.23116 3.81327 8.35433 3.9872 8.44057C4.65334 8.78617 5.41528 8.84285 6.1184 8.59912C6.4064 8.50155 6.6464 8.33778 6.8384 8.11304C7.03454 7.87306 7.13725 7.55941 7.1248 7.23844C7.13553 6.96844 7.05338 6.70379 6.8944 6.49625C6.74722 6.31027 6.56273 6.16362 6.3552 6.06767C6.09146 5.95248 5.821 5.85644 5.5456 5.7802C5.37783 5.73006 5.21136 5.67487 5.0464 5.61469C4.94016 5.5766 4.84101 5.5182 4.7536 5.44221C4.71693 5.41209 4.68716 5.37314 4.66662 5.32841C4.64608 5.28368 4.63532 5.23437 4.6352 5.18436C4.6352 5.05195 4.6928 4.94219 4.8064 4.85856C4.9409 4.76904 5.09692 4.72536 5.2544 4.73312C5.44904 4.72623 5.641 4.78395 5.8048 4.89864C5.91748 4.98129 6.01067 5.09172 6.0768 5.22095L6.1408 5.36207L7.0848 4.8394C7.03775 4.66164 6.95766 4.4963 6.8495 4.35364C6.74133 4.21098 6.60739 4.09405 6.456 4.0101C6.10739 3.80945 5.71742 3.70928 5.3232 3.71915ZM9.1888 5.14429C8.824 5.14429 8.5056 5.2192 8.2336 5.37078C8.02955 5.47843 7.85229 5.63798 7.7168 5.83595L7.6304 5.98578L8.4064 6.43005C8.46849 6.29549 8.5653 6.18358 8.68496 6.10807C8.80461 6.03256 8.94191 5.99672 9.08 6.00495C9.448 6.00495 9.6496 6.22272 9.6816 6.6548C9.44599 6.5714 9.19975 6.52907 8.952 6.52936C8.6864 6.52936 8.4416 6.57465 8.216 6.66873C8.00871 6.74903 7.82443 6.88721 7.6816 7.06944C7.55025 7.23884 7.47926 7.45405 7.4816 7.67574C7.4816 7.897 7.5408 8.0869 7.6608 8.24893C7.78919 8.4174 7.95655 8.54551 8.1456 8.62002C8.3504 8.70713 8.5776 8.74895 8.824 8.74895C9.02276 8.75608 9.22066 8.71749 9.4048 8.6357C9.55942 8.55896 9.69372 8.44089 9.7952 8.29248L9.8272 8.5364L9.8432 8.66358H10.7664V6.72797C10.7664 6.22272 10.6304 5.83421 10.3552 5.55894C10.0816 5.28192 9.6928 5.14429 9.1872 5.14429H9.1888ZM13.0464 5.14429C12.6832 5.14429 12.3648 5.2192 12.0928 5.37078C11.8887 5.47843 11.7115 5.63798 11.576 5.83595L11.488 5.98578L12.264 6.43005C12.3262 6.2952 12.4233 6.18311 12.5432 6.10758C12.6632 6.03205 12.8008 5.99637 12.9392 6.00495C13.3072 6.00495 13.5072 6.22272 13.5392 6.6548C13.3041 6.57158 13.0584 6.52925 12.8112 6.52936C12.5456 6.52936 12.2992 6.57465 12.0752 6.66873C11.8673 6.74876 11.6825 6.88696 11.5392 7.06944C11.4084 7.23909 11.338 7.45427 11.3408 7.67574C11.3408 7.897 11.4 8.0869 11.5184 8.24893C11.6472 8.41765 11.8152 8.54578 12.0048 8.62002C12.2096 8.70713 12.4368 8.74895 12.6832 8.74895C12.8814 8.75583 13.0788 8.71725 13.2624 8.6357C13.4176 8.5592 13.5525 8.44112 13.6544 8.29248L13.6864 8.5364L13.7024 8.66358H14.6256V6.72797C14.6256 6.22272 14.488 5.83421 14.2144 5.55894C13.9392 5.28192 13.5504 5.14429 13.0464 5.14429ZM17.0944 3.71915C16.7664 3.71915 16.4592 3.7749 16.1744 3.88466C15.9054 3.98289 15.6652 4.15727 15.4784 4.38991C15.2983 4.62486 15.2037 4.92374 15.2128 5.22966C15.2128 5.53455 15.2864 5.78194 15.4352 5.96836C15.5782 6.15232 15.7591 6.2968 15.9632 6.38998C16.1696 6.48232 16.4336 6.57465 16.7568 6.66873C16.9776 6.72971 17.1488 6.78546 17.2688 6.83424C17.392 6.88303 17.4928 6.944 17.5728 7.01892C17.6544 7.09384 17.6944 7.18966 17.6944 7.30464C17.6959 7.37094 17.68 7.43632 17.6485 7.49311C17.617 7.54989 17.5714 7.59572 17.5168 7.62521C17.3717 7.70468 17.2103 7.74246 17.048 7.73497C16.8106 7.74191 16.576 7.67804 16.3696 7.5503C16.2282 7.45909 16.1078 7.33396 16.0176 7.18443L15.9344 7.02763L15.0032 7.5503C15.0684 7.74592 15.1687 7.92543 15.2984 8.0783C15.4281 8.23116 15.5845 8.35433 15.7584 8.44057C16.4245 8.78617 17.1865 8.84285 17.8896 8.59912C18.1776 8.50155 18.4176 8.33778 18.6096 8.11304C18.8057 7.87306 18.9085 7.55941 18.896 7.23844C18.9067 6.96844 18.8246 6.70379 18.6656 6.49625C18.5184 6.31027 18.3339 6.16362 18.1264 6.06767C17.8627 5.95248 17.5922 5.85644 17.3168 5.7802C17.149 5.73006 16.9826 5.67487 16.8176 5.61469C16.7114 5.5766 16.6122 5.5182 16.5248 5.44221C16.4881 5.41209 16.4584 5.37314 16.4378 5.32841C16.4173 5.28368 16.4065 5.23437 16.4064 5.18436C16.4064 5.05195 16.464 4.94219 16.5792 4.85856C16.7137 4.76904 16.8697 4.72536 17.0272 4.73312C17.2213 4.72659 17.4127 4.7843 17.576 4.89864C17.6887 4.98129 17.7819 5.09172 17.848 5.22095L17.912 5.36207L18.856 4.8394C18.809 4.66164 18.7289 4.4963 18.6207 4.35364C18.5125 4.21098 18.3786 4.09405 18.2272 4.0101C17.8786 3.80945 17.4886 3.70928 17.0944 3.71915ZM9.1824 7.2576C9.2864 7.2576 9.3952 7.26806 9.5088 7.28722L9.6816 7.32381V7.41092C9.68209 7.49006 9.66323 7.56792 9.62696 7.6365C9.59069 7.70508 9.53831 7.76192 9.4752 7.80118C9.33776 7.89872 9.17684 7.94965 9.0128 7.94752C8.90374 7.95214 8.79583 7.92186 8.7024 7.86041C8.66449 7.83598 8.63324 7.80098 8.61187 7.75903C8.5905 7.71708 8.57977 7.66969 8.5808 7.62173C8.5808 7.51197 8.6352 7.42312 8.744 7.35691C8.88004 7.28387 9.0309 7.24969 9.1824 7.2576ZM13.04 7.2576C13.1456 7.2576 13.2544 7.26806 13.3664 7.28722L13.5392 7.32381V7.41092C13.5398 7.48989 13.5212 7.56763 13.4852 7.6362C13.4493 7.70476 13.3972 7.7617 13.3344 7.80118C13.1965 7.89905 13.035 7.94999 12.8704 7.94752C12.7619 7.9518 12.6546 7.92153 12.5616 7.86041C12.5237 7.83598 12.4924 7.80098 12.4711 7.75903C12.4497 7.71708 12.439 7.66969 12.44 7.62173C12.44 7.51197 12.4944 7.42312 12.6016 7.35691C12.7376 7.28387 12.8885 7.24969 13.04 7.2576Z" fill="url(#paint0_linear_1115_1212)"/>
  <defs>
    <linearGradient id="paint0_linear_1115_1212" x1="11.2" y1="0.550049" x2="11.2" y2="21.4567" gradientUnits="userSpaceOnUse">
      <stop stop-color="#177FFF"/>
      <stop offset="1" stop-color="#18C0FD"/>
    </linearGradient>
  </defs>
</svg>