<svg xmlns="http://www.w3.org/2000/svg" width="26" height="24" viewBox="0 0 26 24" fill="none">
  <path d="M21.4121 0.5C21.8479 0.500085 22.2456 0.756929 22.3994 1.1543L25.5527 8.84668C25.8473 9.51325 25.3216 10.2441 24.5781 10.2441H16.668C16.6573 10.2913 16.0274 13.084 16.0273 15.3721C16.0274 17.088 16.3817 19.0876 16.5635 20H17.2832C17.6978 20 18.0698 20.2563 18.2178 20.6436L18.9814 22.6436C19.2313 23.298 18.7484 23.9998 18.0479 24H7.45312C6.75244 24 6.26878 23.2981 6.51855 22.6436L7.28223 20.6436C7.43016 20.2564 7.80233 20.0001 8.2168 20H9.08105C9.2628 19.0875 9.61712 17.088 9.61719 15.3721C9.61715 13.0808 8.98456 10.2837 8.97559 10.2441H1.06543C0.30945 10.2439 -0.203302 9.51307 0.078125 8.84668L3.23242 1.1543C3.3991 0.756966 3.78392 0.500047 4.21973 0.5H21.4121ZM3.5 6.75C3.08579 6.75 2.75 7.08579 2.75 7.5C2.75 7.91421 3.08579 8.25 3.5 8.25H6.5C6.91421 8.25 7.25 7.91421 7.25 7.5C7.25 7.08579 6.91421 6.75 6.5 6.75H3.5ZM4 4.75C3.58579 4.75 3.25 5.08579 3.25 5.5C3.25 5.91421 3.58579 6.25 4 6.25H16C16.4142 6.25 16.75 5.91421 16.75 5.5C16.75 5.08579 16.4142 4.75 16 4.75H4Z" fill="url(#paint0_linear_1115_1219)"/>
  <defs>
    <linearGradient id="paint0_linear_1115_1219" x1="12.8182" y1="0.5" x2="12.8182" y2="24" gradientUnits="userSpaceOnUse">
      <stop stop-color="#177FFF"/>
      <stop offset="1" stop-color="#18C0FD"/>
    </linearGradient>
  </defs>
</svg>