<svg xmlns="http://www.w3.org/2000/svg" width="20" height="26" viewBox="0 0 20 26" fill="none">
  <path d="M16.2317 7.01851C16.2317 10.5292 12.6119 13.376 9.99958 13.376C7.51192 13.376 3.77071 10.5292 3.77071 7.01851C3.77071 3.50941 5.84053 0.662598 9.99958 0.662598C14.0194 0.662598 16.2317 3.50941 16.2317 7.01851ZM10.2765 15.4895L10.8871 14.9321L10.5243 14.3795H9.51209L9.11206 14.9321L9.75988 15.4895L8.65858 19.5111L9.5623 20.757H10.4838L11.3406 19.5111L10.2765 15.4895ZM19.6004 21.4177C19.6004 24.9299 15.3021 25.3483 9.99958 25.3483C4.69711 25.3483 0.400391 24.9299 0.400391 21.4177C0.400391 18.6682 3.03543 13.8947 6.72319 13.007C7.74514 12.7615 8.84807 24.5903 9.99958 24.5903C11.1641 24.5903 12.2799 12.7662 13.3148 13.0163C16.9815 13.9117 19.6004 18.679 19.6004 21.4177ZM16.7969 18.1742H14.0858V19.1313H16.7969V18.1742Z" fill="url(#paint0_linear_1115_1238)"/>
  <defs>
    <linearGradient id="paint0_linear_1115_1238" x1="10.0004" y1="0.662598" x2="10.0004" y2="25.3483" gradientUnits="userSpaceOnUse">
      <stop stop-color="#177FFF"/>
      <stop offset="1" stop-color="#18C0FD"/>
    </linearGradient>
  </defs>
</svg>