<svg xmlns="http://www.w3.org/2000/svg" width="28" height="32" viewBox="0 0 28 32" fill="none">
  <path d="M4.29597 14.2033C3.28921 14.2033 2.32369 14.6032 1.61181 15.3151C0.899931 16.027 0.5 16.9925 0.5 17.9992V28.204C0.5 29.2108 0.899931 30.1763 1.61181 30.8882C2.32369 31.6001 3.28921 32 4.29597 32H12.5711C12.6667 32 12.7585 31.962 12.8261 31.8944C12.8937 31.8267 12.9317 31.735 12.9317 31.6394C12.9348 31.6015 12.9348 31.5634 12.9317 31.5255L7.36432 14.4437C7.3413 14.3714 7.29568 14.3084 7.23418 14.264C7.17268 14.2195 7.09855 14.196 7.02269 14.1969L4.29597 14.2033ZM23.7819 14.2033H21.0678C20.9919 14.2024 20.9178 14.2259 20.8563 14.2703C20.7948 14.3147 20.7492 14.3777 20.7262 14.45L15.1841 31.5192C15.166 31.5733 15.1611 31.631 15.1697 31.6874C15.1783 31.7439 15.2002 31.7974 15.2336 31.8438C15.2669 31.8901 15.3108 31.9278 15.3616 31.9539C15.4124 31.9799 15.4686 31.9936 15.5257 31.9937H23.7819C24.7887 31.9937 25.7542 31.5937 26.4661 30.8818C27.1779 30.17 27.5779 29.2044 27.5779 28.1977V17.9865C27.5745 16.982 27.1731 16.0197 26.4616 15.3106C25.7501 14.6014 24.7865 14.2032 23.7819 14.2033ZM24.7182 26.0973H19.9227C19.8484 26.1054 19.7733 26.0978 19.7022 26.075C19.6311 26.0522 19.5656 26.0146 19.51 25.9647C19.4544 25.9149 19.4099 25.8539 19.3795 25.7857C19.349 25.7175 19.3333 25.6437 19.3333 25.569C19.3333 25.4943 19.349 25.4205 19.3795 25.3523C19.4099 25.2841 19.4544 25.2231 19.51 25.1733C19.5656 25.1234 19.6311 25.0859 19.7022 25.063C19.7733 25.0402 19.8484 25.0326 19.9227 25.0407H24.7182C24.8484 25.055 24.9686 25.1168 25.056 25.2143C25.1434 25.3118 25.1917 25.4381 25.1917 25.569C25.1917 25.6999 25.1434 25.8262 25.056 25.9237C24.9686 26.0212 24.8484 26.083 24.7182 26.0973ZM21.0425 7.00356C21.0433 6.08414 20.8629 5.17357 20.5117 4.32389C20.1604 3.47422 19.6451 2.70211 18.9953 2.05168C18.3454 1.40126 17.5738 0.88528 16.7244 0.53324C15.8751 0.181201 14.9647 2.49275e-06 14.0453 2.87004e-06C12.6598 -0.0012511 11.3051 0.408434 10.1526 1.17723C9 1.94603 8.10135 3.0394 7.5703 4.31902C7.03924 5.59864 6.89965 7.00702 7.16916 8.366C7.43868 9.72497 8.1052 10.9735 9.08442 11.9536C10.0636 12.9337 11.3115 13.6013 12.6703 13.8721C14.029 14.1428 15.4375 14.0045 16.7176 13.4746C17.9977 12.9447 19.0919 12.0471 19.8617 10.8952C20.6316 9.74332 21.0425 8.389 21.0425 7.00356ZM13.8048 15.3167L10.7997 17.8474C10.7445 17.8931 10.7042 17.9542 10.6839 18.023C10.6637 18.0917 10.6643 18.1649 10.6858 18.2333L13.6909 27.4448C13.7136 27.5187 13.7593 27.5833 13.8213 27.6292C13.8834 27.6751 13.9586 27.6998 14.0358 27.6998C14.113 27.6998 14.1881 27.6751 14.2502 27.6292C14.3123 27.5833 14.358 27.5187 14.3806 27.4448L17.3857 18.227C17.4097 18.1594 17.4123 18.0861 17.393 18.017C17.3738 17.9479 17.3337 17.8864 17.2781 17.841L14.2667 15.3104C14.2024 15.2552 14.1205 15.2248 14.0358 15.2248C13.951 15.2248 13.8691 15.2552 13.8048 15.3104V15.3167Z" fill="white"/>
</svg>