<svg xmlns="http://www.w3.org/2000/svg" width="33" height="32" viewBox="0 0 33 32" fill="none">
  <path d="M21.4336 16.1725C23.1856 14.5014 24.3045 11.964 24.3045 9.12141C24.3045 4.08035 20.7894 0 16.4556 0C12.1182 0 8.60294 4.08228 8.60294 9.12141C8.60294 11.6475 9.48924 13.9402 10.9219 15.5904C11.0999 15.7713 16.093 20.7407 21.4336 16.1725ZM26.7007 22.4813L22.432 18.2955C20.8308 19.7084 16.2917 22.6885 10.0158 18.19C8.12723 19.7536 3.07958 24.2483 3.64097 27.2775C3.64097 27.2775 3.73987 30.4387 9.07762 30.593C9.07762 30.593 24.9845 31.859 27.6312 28.9126C27.6276 28.9089 30.5173 26.9046 26.7007 22.4813Z" fill="white"/>
</svg>