<svg xmlns="http://www.w3.org/2000/svg" width="33" height="32" viewBox="0 0 33 32" fill="none">
  <g clip-path="url(#clip0_1314_9666)">
    <path d="M0.578125 29.822L0.84614 28.3543C1.33554 25.6718 2.04411 23.0338 2.96473 20.467C3.11788 20.0714 3.32209 19.7141 3.50076 19.3439C3.87565 18.552 4.42342 17.8542 5.10372 17.302C5.78402 16.7498 6.57953 16.3573 7.43165 16.1533C7.57063 16.0869 7.73013 16.0778 7.87577 16.1279C8.0214 16.1781 8.1415 16.2834 8.21017 16.4213L9.39709 18.0294L9.52471 18.1698L11.0307 16.115C10.8776 16.5745 10.7372 17.0339 10.5968 17.4934C10.3798 18.157 10.1628 18.7696 9.97141 19.4971C9.92653 19.6686 9.92653 19.8488 9.97141 20.0204C10.3415 21.6667 10.7244 23.3003 11.1456 24.9467C11.1456 24.7553 11.2349 24.5511 11.2732 24.3724C11.5795 22.9302 11.8986 21.5008 12.1921 20.0586C12.2495 19.8585 12.2495 19.6462 12.1921 19.446C11.8986 18.3995 11.5795 17.3657 11.2732 16.3192C11.2596 16.2604 11.2596 16.1993 11.2732 16.1405L12.7154 18.0804L12.843 17.9145C13.2514 17.353 13.6598 16.8042 14.1193 16.2426C14.1816 16.1443 14.2723 16.0672 14.3795 16.0216C14.4866 15.9761 14.605 15.9641 14.7191 15.9874C16.0506 16.1525 17.285 16.7698 18.2161 17.7359C18.9243 18.5496 19.4974 19.4717 19.9135 20.467C20.1304 20.9903 20.3219 21.5391 20.5133 22.0751C20.5228 22.0973 20.5277 22.1212 20.5277 22.1453C20.5277 22.1695 20.5228 22.1933 20.5133 22.2155L20.0539 21.2711C19.9916 21.1087 19.8812 20.9692 19.7376 20.8711C19.5939 20.7731 19.4238 20.7211 19.2498 20.7223C19.0792 20.721 18.9121 20.7715 18.7708 20.8672C18.6295 20.9629 18.5206 21.0993 18.4585 21.2583L17.4631 23.2621C17.4367 23.3395 17.3869 23.4069 17.3206 23.4549C17.2543 23.5029 17.1748 23.5292 17.0929 23.5301C16.3527 23.6194 15.6252 23.747 14.885 23.8364C14.7121 23.8484 14.5467 23.912 14.4102 24.0189C14.2737 24.1258 14.1724 24.2712 14.1193 24.4362C14.0664 24.5966 14.0637 24.7693 14.1116 24.9312C14.1595 25.0931 14.2557 25.2366 14.3873 25.3424C14.9233 25.8656 15.4593 26.4017 16.0081 26.9122C16.0639 26.9626 16.1052 27.0271 16.1277 27.099C16.1501 27.1708 16.1529 27.2473 16.1357 27.3206L15.7529 29.503C15.7079 29.6787 15.7167 29.8638 15.7782 30.0345C15.8396 30.2051 15.9508 30.3534 16.0975 30.4602C16.2336 30.5507 16.3934 30.599 16.5569 30.599C16.7204 30.599 16.8802 30.5507 17.0164 30.4602L19.0839 29.4009C19.1314 29.3701 19.1868 29.3537 19.2434 29.3537C19.3001 29.3537 19.3555 29.3701 19.403 29.4009C20.0411 29.7455 20.6792 30.0901 21.3301 30.4219C21.5471 30.524 21.7896 30.5878 22.0448 30.6771C21.9538 30.8952 21.8182 31.0918 21.6468 31.2544C21.4754 31.4171 21.2719 31.5421 21.0494 31.6216C20.743 31.7492 20.4112 31.813 20.0922 31.9151H2.36489H2.28831C1.85017 31.8926 1.4368 31.7051 1.13135 31.3901C0.825902 31.0752 0.651039 30.6563 0.641938 30.2177C0.645004 30.1667 0.645004 30.1155 0.641938 30.0645C0.648996 29.9839 0.648996 29.9027 0.641938 29.822H0.578125ZM11.4646 0.046875C11.9113 0.123451 12.3708 0.174501 12.8047 0.276602C14.5863 0.708424 16.1438 1.78704 17.1746 3.30292C18.2054 4.8188 18.636 6.66372 18.3827 8.4793C18.1294 10.2949 17.2103 11.9515 15.8039 13.1273C14.3975 14.3032 12.6043 14.9143 10.7726 14.842C8.94081 14.7697 7.20134 14.0191 5.89203 12.7361C4.58271 11.453 3.79705 9.72913 3.68764 7.89923C3.57823 6.06934 4.15289 4.2641 5.3 2.83419C6.44711 1.40428 8.08476 0.451785 9.89483 0.161738C10.1501 0.161738 10.4181 0.0851628 10.6733 0.0596376L11.4646 0.046875ZM32.5612 25.1254L31.821 25.8018C31.5275 26.0954 31.2339 26.3889 30.9276 26.6697C30.8849 26.7096 30.854 26.7604 30.8383 26.8167C30.8225 26.873 30.8225 26.9325 30.8383 26.9887L31.2084 29.0563C31.2084 29.2222 31.2084 29.3881 31.0808 29.4392C31.0201 29.4644 30.955 29.4775 30.8893 29.4775C30.8236 29.4775 30.7585 29.4644 30.6979 29.4392L28.8345 28.4692C28.7851 28.4373 28.7275 28.4204 28.6686 28.4204C28.6098 28.4204 28.5522 28.4373 28.5027 28.4692L26.6649 29.4009C26.5985 29.4443 26.5209 29.4674 26.4416 29.4674C26.3622 29.4674 26.2846 29.4443 26.2182 29.4009C26.1033 29.4009 26.1033 29.1839 26.1033 29.0052C26.231 28.3288 26.3458 27.6652 26.4479 26.976C26.4548 26.9264 26.4516 26.876 26.4384 26.8277C26.4252 26.7795 26.4024 26.7344 26.3714 26.6952L24.9547 25.3168C24.9547 25.3168 24.8526 25.2403 24.8398 25.1892C24.8271 25.1382 24.6995 24.9212 24.7377 24.8191C24.776 24.717 24.9164 24.6277 25.0313 24.6021C25.4397 24.5256 25.8609 24.4745 26.3075 24.4107C26.7542 24.3469 26.8819 24.3214 27.1754 24.2958C27.2319 24.2919 27.286 24.2718 27.3313 24.2378C27.3766 24.2039 27.4111 24.1575 27.4307 24.1044L28.3496 22.2411C28.4261 22.0879 28.5155 21.9347 28.6942 21.973C28.827 22.025 28.9391 22.1192 29.0132 22.2411C29.3323 22.8664 29.6386 23.5173 29.9449 24.1172C29.9704 24.1585 30.0038 24.1945 30.0432 24.223C30.0827 24.2514 30.1273 24.2719 30.1746 24.2831L32.2039 24.5894C32.3401 24.6227 32.4727 24.6697 32.5995 24.7298L32.5612 25.1254Z" fill="white"/>
    <path d="M23.1816 24.9725C23.1336 25.0581 23.0781 25.1392 23.0157 25.215L21.5225 26.6699C21.4765 26.7104 21.4426 26.7628 21.4246 26.8214C21.4066 26.88 21.4051 26.9424 21.4204 27.0017C21.548 27.7037 21.6629 28.3929 21.765 29.082C21.7742 29.1475 21.7674 29.2142 21.7452 29.2764C21.723 29.3387 21.686 29.3946 21.6374 29.4394C21.579 29.4651 21.516 29.4783 21.4523 29.4783C21.3886 29.4783 21.3256 29.4651 21.2672 29.4394C20.6419 29.1203 19.991 28.7885 19.4167 28.4567C19.3608 28.4229 19.2968 28.405 19.2316 28.405C19.1664 28.405 19.1024 28.4229 19.0465 28.4567C18.4467 28.7885 17.7703 29.1076 17.2087 29.4266C17.0683 29.5032 16.9152 29.567 16.8003 29.4266C16.7192 29.3258 16.6782 29.1985 16.6855 29.0693C16.7876 28.3673 16.9152 27.6782 17.0428 26.9762C17.0586 26.9189 17.0574 26.8581 17.0393 26.8015C17.0211 26.7448 16.9869 26.6947 16.9407 26.6571L15.4603 25.215C15.3326 25.0873 15.2178 24.9597 15.3071 24.8066C15.3464 24.7473 15.3972 24.6965 15.4563 24.6571C15.5155 24.6176 15.5819 24.5904 15.6517 24.5768C16.3409 24.462 17.0173 24.3599 17.7065 24.2705C17.7689 24.2708 17.8298 24.2511 17.8803 24.2144C17.9308 24.1777 17.9682 24.1258 17.9872 24.0663C18.2808 23.441 18.5999 22.7901 18.8934 22.2158C18.97 22.0626 19.0721 21.9095 19.238 21.9477C19.3754 21.9917 19.4901 22.0879 19.557 22.2158C19.8761 22.8156 20.1697 23.4282 20.4632 24.0408C20.4852 24.1066 20.5259 24.1646 20.5803 24.2076C20.6347 24.2507 20.7004 24.277 20.7695 24.2833L22.8243 24.5768C23.054 24.5768 23.1816 24.73 23.1816 24.9597V24.9725ZM21.5225 18.7826C21.4894 18.7207 21.4463 18.6646 21.3949 18.6167L19.9399 17.1873C19.8123 17.0597 19.6974 16.932 19.7613 16.7406C19.8251 16.5492 19.991 16.5492 20.1441 16.5236L22.1861 16.2301C22.2436 16.2236 22.2981 16.201 22.3433 16.1649C22.3885 16.1287 22.4225 16.0806 22.4414 16.0259C22.7349 15.4133 23.0412 14.8134 23.3348 14.2008C23.4114 14.0477 23.4879 13.8945 23.6794 13.8945C23.8708 13.8945 23.9729 14.0604 24.0495 14.2136C24.343 14.8262 24.6493 15.4899 24.9556 16.0642C24.9807 16.1047 25.0142 16.1394 25.0538 16.1658C25.0935 16.1922 25.1383 16.2098 25.1854 16.2173C25.8745 16.3322 26.5765 16.4343 27.2657 16.5236C27.4188 16.5236 27.5592 16.5874 27.623 16.7534C27.6868 16.9193 27.623 17.0469 27.4699 17.1618L25.9894 18.6039C25.9433 18.6419 25.9084 18.6915 25.8881 18.7477C25.8679 18.8038 25.8632 18.8644 25.8745 18.923C26.0022 19.5994 26.1043 20.2758 26.2319 20.9523C26.2319 21.1182 26.2319 21.2841 26.1043 21.3989C26.0404 21.4428 25.9648 21.4664 25.8873 21.4664C25.8098 21.4664 25.7342 21.4428 25.6703 21.3989L23.8708 20.4673C23.8219 20.4405 23.767 20.4264 23.7113 20.4264C23.6555 20.4264 23.6006 20.4405 23.5517 20.4673L21.7395 21.4245C21.5863 21.501 21.4204 21.5776 21.3055 21.4245C21.2262 21.3086 21.1901 21.1686 21.2034 21.0288C21.3055 20.3779 21.4204 19.7526 21.5353 19.0634V18.8337L21.5225 18.7826Z" fill="white"/>
  </g>
  <defs>
    <clipPath id="clip0_1314_9666">
      <rect width="32" height="31.9065" fill="white" transform="translate(0.578125 0.046875)"/>
    </clipPath>
  </defs>
</svg>