<svg xmlns="http://www.w3.org/2000/svg" width="33" height="32" viewBox="0 0 33 32" fill="none">
  <path d="M15.4942 2.01562C12.1305 2.01562 9.40391 4.74219 9.40391 8.10594C9.40391 11.4697 12.1305 14.1962 15.4942 14.1962C18.858 14.1962 21.5845 11.4697 21.5845 8.10594C21.5845 4.74219 18.8577 2.01562 15.4942 2.01562ZM16.0239 27.13C15.8739 28.0672 16.0152 28.9222 16.3592 29.6481C16.4277 29.7925 16.323 29.9587 16.1633 29.9587H6.65266C4.41297 29.9587 2.59766 28.1431 2.59766 25.9038V24.7C2.59766 20.0863 6.33797 16.3459 10.9517 16.3459H19.4402C19.5267 16.3459 19.582 16.4378 19.5417 16.5144L19.5402 16.5172L19.0355 17.4887C19.016 17.526 18.9881 17.5583 18.954 17.5828C18.9198 17.6074 18.8804 17.6237 18.8389 17.6303L17.7127 17.8072C14.3233 18.335 12.743 22.5531 15.3483 25.1109L15.9798 25.7306C16.1261 25.8744 16.1939 26.08 16.1611 26.2825L16.0242 27.1297V27.13H16.0239Z" fill="white"/>
  <path d="M25.305 17.5116C24.4969 15.9597 22.2572 15.9597 21.449 17.5116L20.3812 19.5637C20.3812 19.5637 20.3769 19.5691 20.3659 19.5706L18.0444 19.9316C16.3187 20.2016 15.5725 22.3194 16.8553 23.5787L18.5128 25.2062L18.1484 27.4728C17.8631 29.2481 19.7287 30.4959 21.2659 29.7288L23.3612 28.6841C23.37 28.68 23.3803 28.6794 23.3897 28.6822L23.394 28.6841L25.4884 29.7288C27.0256 30.4956 28.8912 29.2472 28.6059 27.4734L28.2415 25.2062L29.899 23.5787C31.1819 22.3191 30.4356 20.2016 28.71 19.9325L26.3884 19.5703C26.3772 19.5688 26.3731 19.5634 26.3731 19.5634L25.305 17.5116Z" fill="white"/>
</svg>