<svg xmlns="http://www.w3.org/2000/svg" width="33" height="32" viewBox="0 0 33 32" fill="none">
  <g clip-path="url(#clip0_1314_9676)">
    <path d="M15.38 16.9163C10.728 16.9163 6.92188 13.1101 6.92188 8.45815C6.92188 3.80617 10.728 0 15.38 0C20.032 0 23.8382 3.80617 23.8382 8.45815C23.8382 13.1101 20.032 16.9163 15.38 16.9163Z" fill="white"/>
    <path d="M27.6444 23.6805C25.2479 19.8744 21.0188 17.3369 16.2258 17.3369C13.6884 17.3369 11.4329 18.0418 9.31836 19.1695C12.1377 20.1563 14.2523 22.8347 14.2523 26.077C14.2523 27.9096 13.5474 29.6012 12.4197 30.87H29.7589C29.7589 28.8964 29.336 26.9228 28.4902 25.2312L32.0144 8.03297C32.0144 7.75103 31.8734 7.32812 31.5915 7.32812C31.3095 7.32812 30.8866 7.46909 30.8866 7.75103L27.6444 23.6805Z" fill="white"/>
    <path d="M6.92231 32.0009C3.68002 32.0009 1.14258 29.4634 1.14258 26.2211C1.14258 22.9789 3.68002 20.4414 6.92231 20.4414C10.1646 20.4414 12.702 22.9789 12.702 26.2211C12.702 29.4634 10.1646 32.0009 6.92231 32.0009ZM8.61394 23.2608C7.9091 23.2608 7.34522 23.6837 6.92231 24.2476C6.64038 23.6837 5.93553 23.2608 5.23068 23.2608C4.10293 23.2608 3.53905 24.3885 3.53905 25.3753C3.53905 27.7718 6.64038 29.1815 6.78134 29.3225H7.06328C6.92231 29.4634 10.3056 27.9128 10.3056 25.3753C10.3056 24.2476 9.60073 23.2608 8.61394 23.2608Z" fill="white"/>
  </g>
  <defs>
    <clipPath id="clip0_1314_9676">
      <rect width="32" height="32" fill="white" transform="translate(0.578125)"/>
    </clipPath>
  </defs>
</svg>