<svg xmlns="http://www.w3.org/2000/svg" width="33" height="32" viewBox="0 0 33 32" fill="none">
  <path d="M3.91211 28.6654C4.24803 26.1208 5.34907 23.7383 7.06938 21.8334C8.78969 19.9286 11.0481 18.5913 13.5454 17.9988L16.5788 25.4988L19.6121 17.9988C22.1095 18.5913 24.3679 19.9286 26.0882 21.8334C27.8085 23.7383 28.9095 26.1208 29.2454 28.6654H3.91211ZM16.5788 3.33209C17.8291 3.34262 19.0483 3.72299 20.0827 4.42528C21.1172 5.12756 21.9207 6.12033 22.3919 7.27849C22.863 8.43664 22.9809 9.70835 22.7305 10.9334C22.4802 12.1584 21.8728 13.2819 20.985 14.1623C20.0972 15.0427 18.9686 15.6406 17.7415 15.8807C16.5145 16.1208 15.2438 15.9923 14.0896 15.5114C12.9355 15.0305 11.9495 14.2188 11.2559 13.1784C10.5623 12.1381 10.1922 10.9158 10.1921 9.66542C10.1956 8.83021 10.3636 8.00387 10.6864 7.23358C11.0093 6.46328 11.4807 5.76412 12.0738 5.17602C12.6668 4.58791 13.3699 4.12238 14.1429 3.80599C14.9158 3.48961 15.7436 3.32858 16.5788 3.33209Z" fill="white"/>
</svg>