<svg xmlns="http://www.w3.org/2000/svg" width="16" height="16" viewBox="0 0 16 16" fill="none">
  <path d="M15.636 13.7868H14.9088V5.0792C14.9072 4.69418 14.7533 4.32544 14.4807 4.05353C14.2081 3.78161 13.839 3.62863 13.454 3.628H10.5452V13.7868H9.8176V1.4512C9.81602 1.06632 9.66223 0.697698 9.38981 0.425808C9.1174 0.153917 8.74848 0.000841941 8.3636 0H2.5452C1.7452 0 1.0904 0.6532 1.0904 1.4512V13.7872H0.3636C0.1456 13.7872 0 13.932 0 14.1496V14.8752C0 15.0928 0.1456 15.238 0.3636 15.238H15.6364C15.8544 15.238 16 15.0928 16 14.8752V14.1496C16 13.932 15.8544 13.7868 15.6364 13.7868H15.636ZM4.7268 10.5216C4.7268 10.7392 4.5816 10.8844 4.3632 10.8844H2.9088C2.6904 10.8844 2.5448 10.7392 2.5448 10.5216V9.796C2.5448 9.5784 2.6904 9.4332 2.9088 9.4332H4.3632C4.5816 9.4332 4.7272 9.5784 4.7272 9.796V10.5216H4.7268ZM4.7268 7.6188C4.7268 7.8368 4.5816 7.982 4.3632 7.982H2.9088C2.6904 7.982 2.5448 7.8368 2.5448 7.6188V6.8936C2.5448 6.6756 2.6904 6.5308 2.9088 6.5308H4.3632C4.5816 6.5308 4.7272 6.6756 4.7272 6.8936V7.6188H4.7268ZM4.7268 4.7164C4.7268 4.9344 4.5816 5.0792 4.3632 5.0792H2.9088C2.6904 5.0792 2.5448 4.9344 2.5448 4.7164V3.9908C2.5448 3.7732 2.6904 3.628 2.9088 3.628H4.3632C4.5816 3.628 4.7272 3.7732 4.7272 3.9908V4.7164H4.7268ZM8.3632 10.5216C8.3632 10.7392 8.2176 10.8844 7.9996 10.8844H6.5452C6.3268 10.8844 6.1812 10.7392 6.1812 10.5216V9.796C6.1812 9.5784 6.3268 9.4332 6.5452 9.4332H7.9996C8.2176 9.4332 8.3636 9.5784 8.3636 9.796V10.5216H8.3632ZM8.3632 7.6188C8.3632 7.8368 8.2176 7.982 7.9996 7.982H6.5452C6.3268 7.982 6.1812 7.8368 6.1812 7.6188V6.8936C6.1812 6.6756 6.3268 6.5308 6.5452 6.5308H7.9996C8.2176 6.5308 8.3636 6.6756 8.3636 6.8936V7.6188H8.3632ZM8.3632 4.7164C8.3632 4.9344 8.2176 5.0792 7.9996 5.0792H6.5452C6.3268 5.0792 6.1812 4.9344 6.1812 4.7164V3.9908C6.1812 3.7732 6.3268 3.628 6.5452 3.628H7.9996C8.2176 3.628 8.3636 3.7732 8.3636 3.9908V4.7164H8.3632ZM13.818 10.5216C13.818 10.7392 13.6724 10.8844 13.454 10.8844H11.9996C11.7816 10.8844 11.6356 10.7392 11.6356 10.5216V9.796C11.6356 9.5784 11.7816 9.4332 11.9996 9.4332H13.454C13.6724 9.4332 13.818 9.5784 13.818 9.796V10.5216ZM13.818 7.6188C13.818 7.8368 13.6724 7.982 13.454 7.982H11.9996C11.7816 7.982 11.6356 7.8368 11.6356 7.6188V6.8936C11.6356 6.6756 11.7816 6.5308 11.9996 6.5308H13.454C13.6724 6.5308 13.818 6.6756 13.818 6.8936V7.6188Z" fill="url(#paint0_linear_2354_1992)"/>
  <defs>
    <linearGradient id="paint0_linear_2354_1992" x1="8" y1="0" x2="8" y2="15.238" gradientUnits="userSpaceOnUse">
      <stop stop-color="#177FFF"/>
      <stop offset="1" stop-color="#18C0FD"/>
    </linearGradient>
  </defs>
</svg>