<svg xmlns="http://www.w3.org/2000/svg" width="20" height="20" viewBox="0 0 20 20" fill="none">
  <path d="M9.90625 14.1172C9.62305 13.834 9.62305 13.375 9.90625 13.0898C10.1895 12.8047 10.6484 12.8066 10.9336 13.0898L13.0918 15.248L13.6621 14.6777L11.502 12.5195C11.2188 12.2363 11.2188 11.7773 11.502 11.4922C11.7852 11.207 12.2441 11.209 12.5293 11.4922L14.6875 13.6523L16.0762 12.2637L11.6445 7.83203L11.1934 8.2832C10.6719 8.80469 9.98633 9.06641 9.30078 9.06641C8.61523 9.06641 7.92969 8.80469 7.4082 8.2832C7.02148 7.89649 7.02148 7.26563 7.4082 6.87891L10.0781 4.21289L9.0332 3.16797C8.18359 2.31836 6.80273 2.31836 5.95312 3.16797L1.89844 7.22266C1.48633 7.63477 1.25977 8.18164 1.25977 8.76367C1.25977 9.3457 1.48633 9.89258 1.89844 10.3047L8.42773 16.834C8.83984 17.2461 9.38672 17.4727 9.96875 17.4727C10.5508 17.4727 11.0977 17.2461 11.5078 16.834L12.0645 16.2773L9.90625 14.1172Z" fill="url(#paint0_linear_2354_1995)"/>
  <path d="M18.1035 7.15625L14.1602 3.21094C13.9805 3.0332 13.7754 2.90039 13.5605 2.79688L8.82422 7.51758C9.27148 7.70703 9.80469 7.61719 10.168 7.25586L11.1328 6.29102C11.416 6.00781 11.875 6.00781 12.1602 6.29102L17.1055 11.2363L18.1074 10.2344C18.9531 9.38672 18.9531 8.00586 18.1035 7.15625Z" fill="url(#paint1_linear_2354_1995)"/>
  <defs>
    <linearGradient id="paint0_linear_2354_1995" x1="10.0005" y1="2.53076" x2="10.0005" y2="17.4727" gradientUnits="userSpaceOnUse">
      <stop stop-color="#177FFF"/>
      <stop offset="1" stop-color="#18C0FD"/>
    </linearGradient>
    <linearGradient id="paint1_linear_2354_1995" x1="10.0005" y1="2.53076" x2="10.0005" y2="17.4727" gradientUnits="userSpaceOnUse">
      <stop stop-color="#177FFF"/>
      <stop offset="1" stop-color="#18C0FD"/>
    </linearGradient>
  </defs>
</svg>