<svg xmlns="http://www.w3.org/2000/svg" width="40" height="40" viewBox="0 0 40 40" fill="none">
  <path d="M23.6218 27.0433C25.3342 27.0433 26.7234 25.7563 26.7234 24.1744C26.7234 22.5905 25.3342 21.3043 23.6218 21.3043C21.9073 21.3043 20.5172 22.5901 20.5172 24.1744C20.5172 25.7563 21.9073 27.0433 23.6218 27.0433ZM35 31.8259C34.7052 29.6625 32.9677 28.0005 30.865 28.0005C29.3129 28.0005 27.9635 28.9033 27.2407 30.2412C26.5189 28.9033 25.1717 28.0005 23.6218 28.0005C21.5147 28.0005 19.7776 29.6625 19.4829 31.8259H35ZM12.6446 28.09C12.0379 27.4504 11.5072 26.781 11.0367 26.0958C12.2136 25.6037 13.3226 25.1398 13.4506 25.0861C13.7258 24.971 13.775 24.7408 13.5904 24.6587C13.3386 24.5461 9.76168 23.0297 9.53995 22.9378C9.49348 22.919 9.43994 22.9134 9.3855 22.9154C9.1881 22.3778 9.04028 21.8402 8.91859 21.3043H17.4134V14.1013L13.9131 11.114C14.3689 10.9453 14.8411 10.8123 15.3275 10.7155L19.2213 14.2729L20.5172 13.0883L17.6997 10.515C21.2877 10.6033 25.216 12.3311 28.1989 15.4749C28.6982 16.0016 29.1465 16.5485 29.5528 17.1072C28.3198 17.6761 27.135 18.2231 27.0005 18.2849C26.7208 18.4138 26.6814 18.6513 26.8779 18.7277C27.1456 18.8322 30.9491 20.2307 31.1846 20.3149C31.2319 20.332 31.2851 20.334 31.3386 20.3311C31.4833 20.6959 31.6072 21.0623 31.717 21.4287C31.4448 21.3559 31.1616 21.3043 30.8637 21.3043C29.1492 21.3043 27.759 22.5905 27.759 24.1744C27.759 25.7563 29.1492 27.0433 30.8637 27.0433C32.5743 27.0433 33.9653 25.7563 33.9653 24.1744C33.9653 22.9512 33.1323 21.913 31.9662 21.5003C31.9064 21.0481 31.8232 20.5934 31.717 20.1388C31.7404 20.1079 31.7675 20.0774 31.7772 20.0424C31.8648 19.7338 32.885 16.1223 32.935 15.9422C32.9974 15.7169 32.7208 15.6461 32.4672 15.7637C32.3857 15.8011 31.4736 16.2216 30.4194 16.7079C27.663 11.576 22.0622 8.70626 16.9243 9.80624L12.7584 6L5 13.0883L6.26223 14.2424L12.7247 8.33661L15 10.4162C14.5875 10.5972 14.1941 10.8042 13.8179 11.0331L12.672 10.0551L8.10333 14.0236V21.3043H8.81056C8.84996 21.8882 8.9159 22.4758 9.03674 23.0675C9.00354 23.1021 8.97299 23.1391 8.95928 23.181C8.86059 23.4786 7.7068 26.9624 7.64969 27.1356C7.57977 27.3536 7.84089 27.4329 8.0905 27.3284C8.17328 27.2942 9.12791 26.8945 10.21 26.4414C13.089 32.2545 19.5656 35.3617 25.1483 33.424C26.0068 33.1264 26.7875 32.7152 27.5019 32.2277C23.1328 34.2024 16.9172 32.5937 12.6446 28.09ZM10.172 14.6088H15.3443V15.5652H10.172V14.6088ZM10.172 16.5221H15.3443V17.4781H10.172V16.5221ZM10.172 18.4349H15.3443V19.3914H10.172V18.4349Z" fill="white"/>
</svg>