<svg xmlns="http://www.w3.org/2000/svg" width="25" height="24" viewBox="0 0 25 24" fill="none">
  <g clip-path="url(#clip0_1314_7813)">
    <path d="M12.5612 23.0297C12.0029 23.0297 11.4446 23.0297 6.83889 18.2844C4.88495 16.1909 2.37274 13.5391 1.81447 12.5621C9.88841e-05 10.329 -0.418603 7.25855 0.697935 4.60678C1.67491 1.955 4.32668 0.140625 7.2576 0.140625C9.3511 0.140625 11.1655 0.978028 12.5612 2.51327C12.9799 2.09457 13.5381 1.5363 14.0964 1.25716C15.0734 0.559327 16.1899 0.140625 17.446 0.140625C18.7021 0.140625 19.8186 0.280192 20.9352 0.978028C21.7726 1.39673 22.4704 1.955 23.1683 2.65284C23.587 3.2111 24.0057 3.76937 24.2848 4.32764C24.7035 5.16505 24.9826 6.14202 24.9826 6.97942C25.1222 9.35206 24.4244 11.7247 22.7496 13.3995C22.0517 14.0973 21.2143 15.0743 20.3769 16.0513C14.7942 21.9131 13.6777 23.0297 12.5612 23.0297ZM7.11803 2.65284C5.30365 2.65284 3.62885 3.76937 2.93101 5.58375C2.23317 7.39812 2.51231 9.49163 3.76841 11.0269C6.42019 14.2369 9.3511 17.3074 12.5612 20.2383C13.6777 19.2613 16.469 16.1909 18.2834 14.2369C19.1208 13.2599 19.9582 12.283 20.656 11.5851C21.7726 10.329 22.3309 8.79379 22.1913 7.11899C22.1913 6.56072 22.0517 5.86288 21.7726 5.30461C21.633 4.88591 21.3539 4.60678 21.0748 4.32764C20.6561 3.90894 20.0978 3.49024 19.5395 3.2111C18.8417 2.7924 18.1438 2.65284 17.446 2.65284C16.7482 2.65284 16.0503 2.93197 15.3525 3.35067C14.7942 3.76937 14.3755 4.18808 13.9568 4.60678C13.6777 4.88591 13.3986 5.16505 13.1194 5.30461L12.1424 6.28158L11.1655 5.02548C11.0259 4.88591 10.8863 4.60678 10.7468 4.46721C9.90937 3.35067 8.5137 2.65284 7.11803 2.65284Z" fill="white"/>
    <path d="M14.5139 14.9314C13.8161 14.9314 13.2578 14.3731 13.2578 13.6753C13.2578 13.3962 13.3974 13.117 13.5369 12.8379L17.4448 8.09262C17.8635 7.53435 18.7009 7.39478 19.2592 7.95305C19.8175 8.37175 19.957 9.20916 19.3988 9.76742L15.4909 14.5127C15.2118 14.6523 14.9326 14.9314 14.5139 14.9314Z" fill="white"/>
  </g>
  <defs>
    <clipPath id="clip0_1314_7813">
      <rect width="25" height="23.0423" fill="white"/>
    </clipPath>
  </defs>
</svg>