<svg xmlns="http://www.w3.org/2000/svg" width="26" height="26" viewBox="0 0 26 26" fill="none">
  <path d="M24.077 5.61496L22.205 5.30296V4.00296C22.205 3.66496 22.023 3.32696 21.737 3.14496C21.451 2.96296 21.087 2.91096 20.775 3.04096L12.975 6.16096L5.17502 3.04096C4.86302 2.91096 4.49902 2.96296 4.21302 3.14496C3.92702 3.32696 3.74502 3.66496 3.74502 4.00296V5.30296L1.87302 5.61496C1.40502 5.71896 1.04102 6.13496 1.04102 6.65496V20.903C1.04102 21.449 1.45702 21.891 1.97702 21.943L12.897 23.035H13.105L24.025 21.943C24.545 21.891 24.961 21.449 24.961 20.903V6.65496C24.961 6.13496 24.597 5.71896 24.077 5.61496ZM14.041 7.98096L20.151 5.53696V17.445L14.041 20.357V7.98096ZM5.85102 5.53696L11.961 7.98096V20.357L5.85102 17.445V5.53696ZM3.12102 7.51296L3.77102 7.40896V18.095C3.77102 18.485 4.00502 18.849 4.36902 19.031L7.15102 20.357L3.12102 19.967V7.51296ZM22.881 19.967L18.851 20.357L21.633 19.031C21.997 18.849 22.231 18.485 22.231 18.095V7.40896L22.881 7.51296V19.967Z" fill="white"/>
  <path d="M18.1223 9.20294L15.2103 10.3209C14.6643 10.5289 14.4043 11.1269 14.6123 11.6729C14.7683 12.0889 15.1583 12.3489 15.5743 12.3489C15.7043 12.3489 15.8343 12.3229 15.9383 12.2709L18.8503 11.1529C19.3963 10.9449 19.6563 10.3469 19.4483 9.80094C19.2663 9.25494 18.6683 8.99494 18.1223 9.20294ZM18.1223 13.3889L15.2103 14.5069C14.6643 14.7149 14.4043 15.3129 14.6123 15.8589C14.7683 16.2749 15.1583 16.5349 15.5743 16.5349C15.7043 16.5349 15.8343 16.5089 15.9383 16.4569L18.8763 15.3389C19.4223 15.1309 19.6823 14.5329 19.4743 13.9869C19.2663 13.4669 18.6683 13.1809 18.1223 13.3889ZM10.7383 10.2949L7.8263 9.17694C7.2803 8.96894 6.6823 9.22894 6.4743 9.77494C6.2663 10.3209 6.5263 10.9189 7.0723 11.1269L9.9843 12.2449C10.1143 12.2969 10.2443 12.3229 10.3483 12.3229C10.7643 12.3229 11.1543 12.0629 11.3103 11.6469C11.5443 11.1009 11.2583 10.5029 10.7383 10.2949ZM10.7383 14.5069L7.8263 13.3889C7.2803 13.1809 6.6823 13.4409 6.4743 13.9869C6.2663 14.5329 6.5263 15.1309 7.0723 15.3389L9.9843 16.4569C10.1143 16.5089 10.2443 16.5349 10.3483 16.5349C10.7643 16.5349 11.1543 16.2749 11.3103 15.8589C11.5443 15.3129 11.2583 14.7149 10.7383 14.5069Z" fill="white"/>
</svg>