<svg xmlns="http://www.w3.org/2000/svg" width="24" height="24" viewBox="0 0 24 24" fill="none">
  <g clip-path="url(#clip0_1314_7801)">
    <path d="M22.0284 18.0513C23.1347 16.2275 23.72 14.1353 23.7207 12.0022C23.7207 5.53892 18.463 0.28125 11.9997 0.28125C5.53648 0.28125 0.278809 5.53892 0.278809 12.0022C0.278809 18.4654 5.53648 23.7231 11.9997 23.7231C14.1726 23.7231 16.2863 23.122 18.1354 21.9828L22.7467 23.5149C22.8614 23.5527 22.9842 23.5579 23.1017 23.53C23.2191 23.5021 23.3265 23.4421 23.4118 23.3568C23.4972 23.2714 23.5571 23.164 23.5851 23.0466C23.613 22.9292 23.6078 22.8063 23.57 22.6917L22.0284 18.0513ZM16.7763 12.9092L12.4596 17.2247C12.338 17.3475 12.1722 17.4156 11.9992 17.4156C11.8329 17.4156 11.666 17.3519 11.5398 17.2247L7.22262 12.9092C5.77983 11.4664 5.77983 9.1166 7.22262 7.67269C7.56605 7.32804 7.97432 7.05481 8.42389 6.86878C8.87347 6.68274 9.35543 6.58758 9.84197 6.58879C10.6267 6.58879 11.3746 6.83102 11.9992 7.28088C12.6277 6.82849 13.3831 6.58627 14.1575 6.58879C14.644 6.58765 15.1258 6.68285 15.5753 6.86888C16.0248 7.05492 16.4329 7.32811 16.7763 7.67269C18.2191 9.1166 18.2191 11.4664 16.7763 12.9092Z" fill="white"/>
  </g>
  <defs>
    <clipPath id="clip0_1314_7801">
      <rect width="24" height="24" fill="white"/>
    </clipPath>
  </defs>
</svg>