<svg xmlns="http://www.w3.org/2000/svg" width="48" height="48" viewBox="0 0 48 48" fill="none">
  <!-- <rect width="48" height="48" rx="16.8" fill="url(#paint0_linear_1314_7784)"/> -->
  <path d="M17.2118 28.7984C17.1566 28.7984 17.0995 28.7984 17.0408 28.7984C15.6963 28.7984 15.024 28.7984 14.5106 28.5369C14.059 28.3068 13.6919 27.9396 13.4618 27.488C13.2002 26.9746 13.2002 26.3026 13.2002 24.9584V18.2384C13.2002 16.8943 13.2002 16.2222 13.4618 15.7089C13.6919 15.2573 14.059 14.8901 14.5106 14.66C15.024 14.3984 15.6961 14.3984 17.0402 14.3984H30.9602C32.3043 14.3984 32.9764 14.3984 33.4898 14.66C33.9414 14.8901 34.3085 15.2573 34.5386 15.7089C34.8002 16.2222 34.8002 16.8943 34.8002 18.2384V24.9584C34.8002 26.3026 34.8002 26.9746 34.5386 27.488C34.3085 27.9396 33.9414 28.3068 33.4898 28.5369C32.9764 28.7984 32.3043 28.7984 30.9602 28.7984H30.8707" stroke="white" stroke-width="2.4" stroke-linecap="round"/>
  <path d="M17.2118 28.7984C17.1566 28.7984 17.0995 28.7984 17.0408 28.7984C15.6963 28.7984 15.024 28.7984 14.5106 28.5369C14.059 28.3068 13.6919 27.9396 13.4618 27.488C13.2002 26.9746 13.2002 26.3026 13.2002 24.9584V18.2384C13.2002 16.8943 13.2002 16.2222 13.4618 15.7089C13.6919 15.2573 14.059 14.8901 14.5106 14.66C15.024 14.3984 15.6961 14.3984 17.0402 14.3984H30.9602C32.3043 14.3984 32.9764 14.3984 33.4898 14.66C33.9414 14.8901 34.3085 15.2573 34.5386 15.7089C34.8002 16.2222 34.8002 16.8943 34.8002 18.2384V24.9584C34.8002 26.3026 34.8002 26.9746 34.5386 27.488C34.3085 27.9396 33.9414 28.3068 33.4898 28.5369C32.9764 28.7984 32.3043 28.7984 30.9602 28.7984H30.8707" stroke="white" stroke-width="2.4" stroke-linecap="round"/>
  <path d="M17.2118 28.7984C17.1566 28.7984 17.0995 28.7984 17.0408 28.7984C15.6963 28.7984 15.024 28.7984 14.5106 28.5369C14.059 28.3068 13.6919 27.9396 13.4618 27.488C13.2002 26.9746 13.2002 26.3026 13.2002 24.9584V18.2384C13.2002 16.8943 13.2002 16.2222 13.4618 15.7089C13.6919 15.2573 14.059 14.8901 14.5106 14.66C15.024 14.3984 15.6961 14.3984 17.0402 14.3984H30.9602C32.3043 14.3984 32.9764 14.3984 33.4898 14.66C33.9414 14.8901 34.3085 15.2573 34.5386 15.7089C34.8002 16.2222 34.8002 16.8943 34.8002 18.2384V24.9584C34.8002 26.3026 34.8002 26.9746 34.5386 27.488C34.3085 27.9396 33.9414 28.3068 33.4898 28.5369C32.9764 28.7984 32.3043 28.7984 30.9602 28.7984H30.8707" stroke="white" stroke-width="2.4" stroke-linecap="round"/>
  <path d="M13.2002 33.6016H34.8002" stroke="white" stroke-width="2.4" stroke-linecap="round"/>
  <path d="M13.2002 33.6016H34.8002" stroke="white" stroke-width="2.4" stroke-linecap="round"/>
  <path d="M13.2002 33.6016H34.8002" stroke="white" stroke-width="2.4" stroke-linecap="round"/>
  <path d="M19.7998 28.0953C19.7998 26.7698 20.8743 25.6953 22.1998 25.6953H25.7998C27.1253 25.6953 28.1998 26.7698 28.1998 28.0953V32.399H19.7998V28.0953Z" fill="white"/>
  <circle cx="23.9999" cy="21.9008" r="3.6" fill="white"/>
  <path d="M28.8406 18.3886C28.9721 18.5757 29.1523 18.771 29.3763 18.9686C29.7476 19.2961 30.1153 19.523 30.1299 19.5323L30.2249 19.5908C30.2663 19.6165 30.3211 19.6165 30.3625 19.5908L30.4574 19.5323C30.4733 19.523 30.8397 19.2961 31.2111 18.9686C31.4351 18.771 31.6153 18.5757 31.7468 18.3886C31.8296 18.2705 31.8953 18.1535 31.9391 18.0401C31.9927 17.9044 32.0207 17.7723 32.0207 17.6448C32.0207 17.5092 31.9927 17.3782 31.9367 17.2554C31.8831 17.1361 31.8064 17.0297 31.709 16.9385C31.6116 16.8472 31.4996 16.7759 31.373 16.7256C31.2427 16.6742 31.1051 16.6484 30.9639 16.6484C30.7667 16.6484 30.5743 16.6999 30.4075 16.7981C30.3673 16.8215 30.3296 16.8472 30.2931 16.8753C30.2565 16.8472 30.2188 16.8215 30.1786 16.7981C30.0118 16.7011 29.8195 16.6484 29.6222 16.6484C29.4798 16.6484 29.3422 16.6742 29.2131 16.7256C29.0877 16.7759 28.9745 16.8472 28.8771 16.9385C28.7797 17.0297 28.703 17.1361 28.6494 17.2554C28.5934 17.3794 28.5654 17.5103 28.5654 17.6448C28.5654 17.7723 28.5922 17.9056 28.647 18.0401C28.6933 18.1524 28.7578 18.2705 28.8406 18.3886Z" fill="white"/>
  <!-- <defs>
    <linearGradient id="paint0_linear_1314_7784" x1="24" y1="0" x2="24" y2="48" gradientUnits="userSpaceOnUse">
      <stop stop-color="#1587FF"/>
      <stop offset="1" stop-color="#7DE9FF"/>
    </linearGradient>
  </defs> -->
</svg>