<svg width="37" height="37" viewBox="0 0 37 37" fill="none" xmlns="http://www.w3.org/2000/svg">
<path d="M10.4285 1.55775C9.57815 0.707433 8.19952 0.707433 7.3492 1.55775C6.49889 2.40806 6.49889 3.7867 7.3492 4.63701L11.3284 8.61621C12.1787 9.46652 13.5573 9.46652 14.4077 8.61621C15.258 7.76589 15.258 6.38726 14.4077 5.53694L10.4285 1.55775Z" fill="#33CBEF"/>
<path d="M16.6049 10.7809C15.7546 11.6312 15.7546 13.0098 16.6049 13.8601C17.4552 14.7104 18.8338 14.7104 19.6842 13.8601L28.9247 4.61962C29.775 3.7693 29.775 2.39067 28.9247 1.54035C28.0744 0.690034 26.6957 0.690034 25.8454 1.54035L16.6049 10.7809Z" fill="url(#paint0_linear_1_2537)"/>
<path d="M25.8499 34.7393C26.7002 35.5897 28.0788 35.5897 28.9291 34.7393C29.7794 33.889 29.7794 32.5104 28.9291 31.6601L24.9499 27.6809C24.0996 26.8306 22.721 26.8306 21.8707 27.6809C21.0203 28.5312 21.0203 29.9098 21.8707 30.7602L25.8499 34.7393Z" fill="#33CBEF"/>
<path d="M19.6773 25.5017C20.5276 24.6514 20.5276 23.2728 19.6773 22.4224C18.827 21.5721 17.4484 21.5721 16.5981 22.4224L7.35755 31.663C6.50724 32.5133 6.50724 33.8919 7.35755 34.7422C8.20787 35.5925 9.5865 35.5925 10.4368 34.7422L19.6773 25.5017Z" fill="url(#paint1_linear_1_2537)"/>
<path d="M1.53947 25.8429C0.689154 26.6932 0.689153 28.0719 1.53947 28.9222C2.38978 29.7725 3.76842 29.7725 4.61873 28.9222L8.59793 24.943C9.44824 24.0927 9.44824 22.714 8.59793 21.8637C7.74761 21.0134 6.36898 21.0134 5.51866 21.8637L1.53947 25.8429Z" fill="#33CBEF"/>
<path d="M10.7805 19.6628C11.6308 20.5131 13.0095 20.5131 13.8598 19.6628C14.7101 18.8124 14.7101 17.4338 13.8598 16.5835L4.61927 7.34299C3.76896 6.49267 2.39032 6.49267 1.54001 7.34299C0.689691 8.1933 0.689691 9.57194 1.54001 10.4223L10.7805 19.6628Z" fill="url(#paint2_linear_1_2537)"/>
<path d="M34.7354 10.4397C35.5857 9.58933 35.5857 8.2107 34.7354 7.36038C33.8851 6.51007 32.5065 6.51007 31.6562 7.36038L27.677 11.3396C26.8267 12.1899 26.8267 13.5685 27.677 14.4188C28.5273 15.2692 29.9059 15.2692 30.7562 14.4188L34.7354 10.4397Z" fill="#33CBEF"/>
<path d="M25.4978 16.6198C24.6475 15.7695 23.2689 15.7695 22.4185 16.6198C21.5682 17.4701 21.5682 18.8488 22.4185 19.6991L31.659 28.9396C32.5094 29.7899 33.888 29.7899 34.7383 28.9396C35.5886 28.0893 35.5886 26.7106 34.7383 25.8603L25.4978 16.6198Z" fill="url(#paint3_linear_1_2537)"/>
<defs>
<linearGradient id="paint0_linear_1_2537" x1="15.9675" y1="7.70109" x2="29.5646" y2="7.70109" gradientUnits="userSpaceOnUse">
<stop offset="0.06" stop-color="#1C88F9"/>
<stop offset="1" stop-color="#35D0EE"/>
</linearGradient>
<linearGradient id="paint1_linear_1_2537" x1="13.517" y1="21.7838" x2="13.517" y2="35.3809" gradientUnits="userSpaceOnUse">
<stop offset="0.06" stop-color="#1C88F9"/>
<stop offset="1" stop-color="#35D0EE"/>
</linearGradient>
<linearGradient id="paint2_linear_1_2537" x1="7.69691" y1="20.3018" x2="7.69692" y2="6.70856" gradientUnits="userSpaceOnUse">
<stop offset="0.06" stop-color="#1C88F9"/>
<stop offset="1" stop-color="#35D0EE"/>
</linearGradient>
<linearGradient id="paint3_linear_1_2537" x1="21.7826" y1="22.779" x2="35.3797" y2="22.779" gradientUnits="userSpaceOnUse">
<stop stop-color="#1C88F9"/>
<stop offset="1" stop-color="#35D0EE"/>
</linearGradient>
</defs>
</svg>
