<svg width="73" height="72" viewBox="0 0 73 72" fill="none" xmlns="http://www.w3.org/2000/svg">
<rect x="0.5" y="29" width="44" height="43" rx="21.5" fill="#1786FF"/>
<rect x="46.5" width="26" height="25" rx="12.5" fill="#7CE9FF"/>
<path d="M45.9568 56.7102H20.1404C20.1404 56.7102 19.6533 56.4666 19.6533 55.736V12.6275C19.6533 12.1404 19.8968 11.6533 20.1404 11.6533H32.3179L37.1889 18.9598C37.676 19.4469 38.1631 19.6904 38.8938 19.6904H57.6472C57.6472 19.6904 58.1343 19.934 58.1343 20.6646V32.8422C58.1343 33.8164 58.865 34.7906 60.0827 34.7906C61.3005 34.7906 62.0311 34.0599 62.0311 32.8422V20.6646C62.0311 18.4727 60.8134 16.7678 59.1085 16.2807V14.8194C59.1085 12.3839 57.1601 10.4355 54.7246 10.4355H35.9712L34.7534 8.73065C34.5099 8.24355 34.0228 8 33.2921 8H20.1404C17.9484 8 16 9.94841 16 12.6275V55.9795C16 58.415 17.7049 60.607 20.1404 60.607H45.9568C46.931 60.607 47.9052 59.8763 47.9052 58.6586C47.9052 57.4408 46.931 56.7102 45.9568 56.7102ZM54.481 14.0888C54.7246 14.0888 55.2117 14.3323 55.2117 14.8194V16.2807H40.1115L38.6502 14.3323H54.481V14.0888Z" fill="black"/>
<path d="M25.0078 35.2764V46.2362C25.0078 47.2104 25.7385 48.1846 26.9562 48.1846C28.174 48.1846 28.9046 47.4539 28.9046 46.2362V35.5199C28.9046 34.5457 28.174 33.5715 26.9562 33.5715C25.7385 33.5715 25.0078 34.3022 25.0078 35.2764ZM33.045 25.5343V46.2362C33.045 47.2104 33.7756 48.1846 34.9934 48.1846C36.2112 48.1846 36.9418 47.4539 36.9418 46.2362V25.5343C36.9418 24.5601 36.2112 23.5859 34.9934 23.5859C33.7756 23.5859 33.045 24.5601 33.045 25.5343ZM41.0822 31.3796V46.2362C41.0822 47.2104 41.8128 48.1846 43.0306 48.1846C44.2483 48.1846 44.979 47.4539 44.979 46.2362V31.3796C44.979 30.4054 44.2483 29.4312 43.0306 29.4312C41.8128 29.4312 41.0822 30.4054 41.0822 31.3796ZM63.7324 57.196L60.8098 52.812C61.784 51.8378 62.5146 50.8636 62.7582 49.6459C63.9759 45.7491 61.784 41.6087 57.8872 40.6345C55.9388 40.1474 53.9904 40.3909 52.2855 41.1216C50.5807 42.0958 49.3629 43.5571 48.6322 45.5055C47.4145 49.4023 49.6064 53.5427 53.5033 54.5169C54.2339 54.7604 54.9646 54.7604 55.6952 54.7604C56.4259 54.7604 57.4001 54.5169 58.1307 54.2733L61.2969 58.9008C61.5404 59.3879 62.0275 59.6315 62.5146 59.6315C62.7582 59.6315 63.0017 59.6315 63.4888 59.3879C63.9759 58.9008 64.2195 57.9266 63.7324 57.196ZM54.4775 51.5943C52.2855 50.8636 51.0678 48.4281 51.5549 46.2362C51.7984 45.262 52.5291 44.2878 53.5033 43.8007C54.2339 43.5571 54.721 43.3136 55.4517 43.3136C55.9388 43.3136 56.1823 43.3136 56.6694 43.5571C58.8614 44.2878 60.0791 46.7233 59.592 48.9152C59.3485 49.8894 58.6178 50.8636 57.6436 51.3507C56.6694 51.5943 55.6952 51.8378 54.4775 51.5943Z" fill="black" fill-opacity="0.5"/>
</svg>
