<svg width="73" height="72" viewBox="0 0 73 72" fill="none" xmlns="http://www.w3.org/2000/svg">
<rect x="0.5" y="29" width="44" height="43" rx="21.5" fill="#1786FF"/>
<rect x="46.5" width="26" height="25" rx="12.5" fill="#7CE9FF"/>
<path d="M19.4 7.66406C19.9844 7.66398 20.5487 7.87713 20.9872 8.26351C21.4256 8.64989 21.708 9.18297 21.7813 9.76273L21.8 10.0641V50.8641H62.6C63.1844 50.864 63.7487 51.0771 64.1872 51.4635C64.6256 51.8499 64.908 52.383 64.9813 52.9627L65 53.2641C65.0001 53.8485 64.7869 54.4128 64.4006 54.8512C64.0142 55.2896 63.4811 55.572 62.9013 55.6454L62.6 55.6641H19.4C18.8156 55.6641 18.2513 55.451 17.8129 55.0646C17.3744 54.6782 17.092 54.1452 17.0187 53.5654L17 53.2641V10.0641C17 9.42754 17.2529 8.81709 17.7029 8.36701C18.153 7.91692 18.7635 7.66406 19.4 7.66406Z" fill="#1D262C"/>
<path d="M55.3645 20.3844C55.7903 19.9499 56.3652 19.6932 56.9729 19.6664C57.5807 19.6396 58.176 19.8445 58.6384 20.2399C59.1008 20.6352 59.3958 21.1914 59.4638 21.7959C59.5317 22.4005 59.3676 23.0083 59.0045 23.4964L58.7912 23.7444L46.5512 36.2244C46.1472 36.6362 45.6084 36.8887 45.0335 36.9357C44.4586 36.9827 43.886 36.8211 43.4205 36.4804L43.1725 36.2724L38.1485 31.4271L30.6952 38.8804C30.2849 39.29 29.7402 39.5373 29.1618 39.5765C28.5834 39.6157 28.0103 39.4442 27.5485 39.0938L27.3032 38.8804C26.8935 38.4701 26.6463 37.9255 26.6071 37.347C26.5678 36.7686 26.7393 36.1956 27.0898 35.7337L27.3032 35.4884L36.4232 26.3684C36.8282 25.9632 37.3649 25.7163 37.9361 25.6723C38.5073 25.6283 39.0755 25.7901 39.5378 26.1284L39.7858 26.3364L44.7885 31.1631L55.3645 20.3844Z" fill="#1D262C" fill-opacity="0.5"/>
</svg>
