<svg xmlns="http://www.w3.org/2000/svg" width="73" height="72" viewBox="0 0 73 72" fill="none">
  <rect x="0.5" y="29" width="44" height="43" rx="21.5" fill="#1786FF"/>
  <rect x="46.5" width="26" height="25" rx="12.5" fill="#7CE9FF"/>
  <path fill-rule="evenodd" clip-rule="evenodd" d="M22.5 12H58.5C61.9 12 64.5 14.6 64.5 18V54C64.5 57.4 61.9 60 58.5 60H22.5C19.1 60 16.5 57.4 16.5 54V18C16.5 14.6 19.1 12 22.5 12ZM58.5 56C59.7 56 60.5 55.2 60.5 54V46H20.5V54C20.5 55.2 21.3 56 22.5 56H58.5ZM20.5 42H60.5V32H20.5V42ZM20.5 28H60.5V18C60.5 16.8 59.7 16 58.5 16H22.5C21.3 16 20.5 16.8 20.5 18V28Z" fill="black"/>
  <path d="M52.5 20H48.5C47.5 20 46.5 21 46.5 22C46.5 23 47.5 24 48.5 24H52.5C53.5 24 54.5 23 54.5 22C54.5 21 53.5 20 52.5 20Z" fill="black" fill-opacity="0.5"/>
  <path d="M52.5 40H48.5C47.5 40 46.5 39 46.5 38C46.5 37 47.5 36 48.5 36H52.5C53.5 36 54.5 37 54.5 38C54.5 39 53.5 40 52.5 40Z" fill="black" fill-opacity="0.5"/>
  <path d="M48.5 54H52.5C53.5 54 54.5 53 54.5 52C54.5 51 53.5 50 52.5 50H48.5C47.5 50 46.5 51 46.5 52C46.5 53 47.5 54 48.5 54Z" fill="black" fill-opacity="0.5"/>
</svg>