<svg width="72" height="72" viewBox="0 0 72 72" fill="none" xmlns="http://www.w3.org/2000/svg">
<rect y="29" width="44" height="43" rx="21.5" fill="#1786FF"/>
<rect x="46" width="26" height="25" rx="12.5" fill="#7CE9FF"/>
<path fill-rule="evenodd" clip-rule="evenodd" d="M58.234 19.6593C59.8482 20.3787 61.0887 21.6871 61.723 23.3353C62.3574 24.9892 62.3121 26.7847 61.5814 28.399C60.4883 30.8628 58.0584 32.3298 55.5209 32.3298C54.626 32.3298 53.7141 32.1429 52.8418 31.7578C52.0092 31.3839 51.2898 30.8628 50.7008 30.2341C50.5535 30.8515 50.3213 31.4462 49.9928 32.0013C49.0695 33.5759 47.5119 34.7031 45.7221 35.0882L35.7023 37.2519C35.3172 37.3369 34.9264 37.3765 34.5355 37.3765C32.825 37.3765 31.1598 36.5892 30.0893 35.2128L26.1357 30.1322C25.7393 29.6224 25.1445 29.3279 24.4988 29.3279H14.3488C11.5564 29.3279 9.28516 27.0509 9.28516 24.2585C9.28516 21.4662 11.5564 19.1892 14.3545 19.1892C14.3488 19.1892 23.0432 19.1609 27.0646 19.1722C28.8771 19.1779 30.565 19.9935 31.7035 21.4095L33.8559 24.083C33.9578 24.2076 34.1221 24.2642 34.2807 24.2302L42.9014 22.2818C45.218 21.7607 47.5459 22.5763 49.0979 24.2076C49.1941 23.8054 49.3187 23.4089 49.4943 23.0181C50.9727 19.682 54.8922 18.1753 58.234 19.6593ZM44.9574 31.5539C45.773 31.3783 46.4527 30.8855 46.8719 30.1718C47.291 29.4582 47.393 28.6255 47.1551 27.8326C46.7076 26.3712 45.184 25.4876 43.7 25.8275L35.0793 27.7759C33.5783 28.1214 31.9867 27.5607 31.0238 26.3599L28.8771 23.6808C28.4297 23.1257 27.767 22.8029 27.059 22.8029H25.2805C20.9248 22.8029 14.3602 22.8199 14.3602 22.8199C13.5615 22.8199 12.9102 23.4656 12.9102 24.2642C12.9102 25.0628 13.5559 25.7085 14.3488 25.7085H24.4932C26.266 25.7085 27.9086 26.5128 28.9961 27.9119L32.9496 32.9925C33.4141 33.5929 34.1957 33.8761 34.9377 33.7175L44.9574 31.5539ZM54.3201 28.4556C55.8324 29.124 57.6053 28.4443 58.2793 26.932C58.6078 26.2013 58.6248 25.3857 58.3303 24.6437C58.0414 23.896 57.4807 23.3013 56.75 22.9785C56.3535 22.8029 55.9457 22.7179 55.5379 22.7179C54.3938 22.7179 53.2949 23.3806 52.7965 24.4964C52.4736 25.2271 52.451 26.0427 52.7398 26.7904C53.0287 27.538 53.5895 28.1328 54.3201 28.4556Z" fill="black"/>
<path d="M58.0074 37.4955C57.0389 37.2802 56.0647 37.8919 55.8438 38.8718C53.6688 48.6423 44.8215 55.7394 34.8074 55.7394C24.7934 55.7394 15.9461 48.648 13.7711 38.8718C13.5559 37.8976 12.5816 37.2802 11.6074 37.4955C10.6275 37.7107 10.0158 38.6792 10.2311 39.6591C12.7742 51.0779 23.1111 59.3644 34.8074 59.3644C46.5094 59.3644 56.8406 51.0779 59.3838 39.6591C59.599 38.6792 58.9816 37.7107 58.0074 37.4955Z" fill="black" fill-opacity="0.5"/>
</svg>
