<svg width="72" height="72" viewBox="0 0 72 72" fill="none" xmlns="http://www.w3.org/2000/svg">
<rect y="29" width="44" height="43" rx="21.5" fill="#1786FF"/>
<rect x="46" width="26" height="25" rx="12.5" fill="#7CE9FF"/>
<g clip-path="url(#clip0_1290_6811)">
<path d="M36.5 65C20.521 65 7.5 51.979 7.5 36C7.5 20.021 20.521 7 36.5 7C52.479 7 65.5 20.021 65.5 36C65.5 51.979 52.479 65 36.5 65ZM36.5 10.625C22.522 10.625 11.125 22.022 11.125 36C11.125 49.978 22.522 61.375 36.5 61.375C50.478 61.375 61.875 49.978 61.875 36C61.875 22.022 50.478 10.625 36.5 10.625Z" fill="#333333"/>
<path d="M34.9045 46.4398C34.8755 46.4398 32.3235 46.3528 30.9605 45.8018C30.0325 45.4248 29.5975 44.3518 30.0035 43.4238C30.3805 42.4958 31.4535 42.0608 32.3815 42.4668C32.8165 42.6408 34.4405 42.8148 34.9335 42.8438C36.6445 42.8438 38.2395 42.4378 39.6895 41.6258C41.5745 40.5818 43.2275 38.8708 44.5905 36.4928C46.1855 33.7088 47.4035 30.0838 48.2155 25.7048H46.9975C40.6755 25.7048 36.2675 25.7628 32.9615 26.5748C31.1055 27.0098 29.6845 27.6768 28.6115 28.6048C27.4805 29.5618 26.7265 30.8088 26.2625 32.4618C25.9435 33.6218 25.8565 35.6808 26.4365 37.5658C26.6105 38.1458 26.8425 38.6678 27.2195 39.2188C27.7705 40.0598 27.5095 41.1908 26.6685 41.7128C25.8275 42.2638 24.6965 42.0028 24.1745 41.1618C23.6235 40.3208 23.2465 39.4798 22.9855 38.6098C22.1155 35.8548 22.3475 33.0418 22.7825 31.4758C23.4205 29.1558 24.6095 27.2418 26.2625 25.8208C27.7705 24.5448 29.6845 23.6168 32.0915 23.0368C35.7745 22.1378 40.3855 22.0508 46.9685 22.0508H48.5925C49.4915 22.0508 50.3615 22.3988 50.9995 23.0368L51.1155 23.1528C51.6955 23.8488 51.9565 24.8058 51.8405 25.7338V25.7918C50.9705 30.8378 49.5785 35.0138 47.6935 38.2618C45.9825 41.2198 43.8655 43.3948 41.4005 44.7578C39.4285 45.8888 37.2535 46.4398 34.9045 46.4398Z" fill="#333333" fill-opacity="0.5"/>
<path d="M25.3945 50.7619H25.2785C24.2925 50.7039 23.5095 49.8339 23.5965 48.8479C23.9735 43.0769 26.6415 40.0029 28.6135 37.7699L28.8165 37.5379C29.9765 36.1169 33.2825 33.6809 34.9935 32.8109C36.5015 32.0279 37.7195 31.5639 39.5755 31.4189C40.5905 31.3319 41.4315 32.0859 41.5185 33.1009C41.6055 34.0869 40.8515 34.9569 39.8365 35.0439C38.7055 35.1309 37.9805 35.3629 36.6465 36.0299C35.1965 36.7839 32.3255 38.9299 31.5135 39.8869L31.3105 40.1189C29.5125 42.1779 27.4825 44.5269 27.1925 49.0799C27.1345 50.0079 26.3225 50.7619 25.3945 50.7619Z" fill="#333333"/>
</g>
<defs>
<clipPath id="clip0_1290_6811">
<rect width="58" height="58" fill="white" transform="translate(7.5 7)"/>
</clipPath>
</defs>
</svg>
