<svg width="72" height="72" viewBox="0 0 72 72" fill="none" xmlns="http://www.w3.org/2000/svg">
<rect y="29" width="44" height="43" rx="21.5" fill="#1786FF"/>
<rect x="46" width="26" height="25" rx="12.5" fill="#7CE9FF"/>
<path d="M18.9 7.66406C19.4844 7.66398 20.0487 7.87713 20.4872 8.26351C20.9256 8.64989 21.208 9.18297 21.2813 9.76273L21.3 10.0641V50.8641H62.1C62.6844 50.864 63.2487 51.0771 63.6872 51.4635C64.1256 51.8499 64.408 52.383 64.4813 52.9627L64.5 53.2641C64.5001 53.8485 64.2869 54.4128 63.9006 54.8512C63.5142 55.2896 62.9811 55.572 62.4013 55.6454L62.1 55.6641H18.9C18.3156 55.6641 17.7513 55.451 17.3129 55.0646C16.8744 54.6782 16.592 54.1452 16.5187 53.5654L16.5 53.2641V10.0641C16.5 9.42754 16.7529 8.81709 17.2029 8.36701C17.653 7.91692 18.2635 7.66406 18.9 7.66406Z" fill="#1D262C"/>
<path d="M54.8645 20.3844C55.2903 19.9499 55.8652 19.6932 56.4729 19.6664C57.0807 19.6396 57.676 19.8445 58.1384 20.2399C58.6008 20.6352 58.8958 21.1914 58.9638 21.7959C59.0317 22.4005 58.8676 23.0083 58.5045 23.4964L58.2912 23.7444L46.0512 36.2244C45.6472 36.6362 45.1084 36.8887 44.5335 36.9357C43.9586 36.9827 43.386 36.8211 42.9205 36.4804L42.6725 36.2724L37.6485 31.4271L30.1952 38.8804C29.7849 39.29 29.2402 39.5373 28.6618 39.5765C28.0834 39.6157 27.5103 39.4442 27.0485 39.0938L26.8032 38.8804C26.3935 38.4701 26.1463 37.9255 26.1071 37.347C26.0678 36.7686 26.2393 36.1956 26.5898 35.7337L26.8032 35.4884L35.9232 26.3684C36.3282 25.9632 36.8649 25.7163 37.4361 25.6723C38.0073 25.6283 38.5755 25.7901 39.0378 26.1284L39.2858 26.3364L44.2885 31.1631L54.8645 20.3844Z" fill="#1D262C" fill-opacity="0.5"/>
</svg>
