<svg width="72" height="72" viewBox="0 0 72 72" fill="none" xmlns="http://www.w3.org/2000/svg">
<rect y="29" width="44" height="43" rx="21.5" fill="#1786FF"/>
<rect x="46" width="26" height="25" rx="12.5" fill="#7CE9FF"/>
<path fill-rule="evenodd" clip-rule="evenodd" d="M55.4975 21.2838L38.2459 11.3235C37.4112 10.8416 36.4643 10.5879 35.5004 10.5879C34.5366 10.5879 33.5897 10.8416 32.755 11.3235L15.5033 21.2838C14.6686 21.7657 13.9754 22.4589 13.4935 23.2936C13.0115 24.1284 12.7578 25.0753 12.7578 26.0391V45.9596C12.7578 46.9235 13.0115 47.8704 13.4935 48.7051C13.9754 49.5399 14.6686 50.233 15.5034 50.7149L32.755 60.6752C33.5897 61.1571 34.5366 61.4109 35.5004 61.4109C36.4643 61.4109 37.4112 61.1571 38.2459 60.6752L55.4976 50.7149C56.3323 50.233 57.0255 49.5398 57.5074 48.7051C57.9894 47.8704 58.2431 46.9235 58.2431 45.9596V26.0391C58.2431 25.0752 57.9893 24.1284 57.5074 23.2936C57.0255 22.4589 56.3323 21.7657 55.4975 21.2838ZM17.2026 24.227L34.4542 14.2667C34.7723 14.083 35.1331 13.9864 35.5004 13.9864C35.8678 13.9864 36.2286 14.083 36.5467 14.2667L53.7984 24.227C54.1165 24.4106 54.3806 24.6748 54.5643 24.9929C54.7479 25.311 54.8446 25.6718 54.8446 26.0391V45.9596C54.8446 46.3269 54.7479 46.6878 54.5643 47.0059C54.3806 47.324 54.1164 47.5881 53.7983 47.7718L36.5467 57.732C36.2286 57.9157 35.8678 58.0124 35.5004 58.0124C35.1331 58.0124 34.7723 57.9157 34.4542 57.732L17.2025 47.7718C16.8844 47.5881 16.6203 47.324 16.4366 47.0059C16.2529 46.6878 16.1563 46.3269 16.1563 45.9596V26.0391C16.1563 25.6718 16.253 25.311 16.4366 24.9929C16.6203 24.6748 16.8845 24.4106 17.2026 24.227Z" fill="black"/>
<path d="M44.0087 29.0914C44.8208 28.6211 45.8604 28.8983 46.3306 29.7103C46.8009 30.5224 46.5238 31.562 45.7117 32.0323L37.1997 36.9615V46.9566C37.1997 47.895 36.4389 48.6558 35.5004 48.6558C34.562 48.6558 33.8012 47.895 33.8012 46.9566V36.9789L25.2892 32.0497C24.477 31.5794 24.2 30.5398 24.6702 29.7277C25.1405 28.9156 26.1801 28.6385 26.9922 29.1088L35.4855 34.0271L44.0087 29.0914Z" fill="black" fill-opacity="0.5"/>
</svg>
