<svg width="72" height="72" viewBox="0 0 72 72" fill="none" xmlns="http://www.w3.org/2000/svg">
<rect y="29" width="44" height="43" rx="21.5" fill="#1786FF"/>
<rect x="46" width="26" height="25" rx="12.5" fill="#7CE9FF"/>
<path fill-rule="evenodd" clip-rule="evenodd" d="M62.8659 36.7122C62.8659 22.0286 50.9638 10.1289 36.2826 10.1289C21.6013 10.1289 9.69922 22.0286 9.69922 36.7122C9.69922 51.3935 21.6013 63.2956 36.2826 63.2956C50.9638 63.2956 62.8659 51.3935 62.8659 36.7122ZM20.6629 21.0914C24.8055 16.9488 30.424 14.6215 36.2826 14.6215C42.1411 14.6215 47.7596 16.9488 51.9022 21.0914C56.0448 25.234 58.3721 30.8525 58.3721 36.711C58.3721 42.5695 56.0448 48.1881 51.9022 52.3307C47.7596 56.4733 42.1411 58.8006 36.2826 58.8006C30.424 58.8006 24.8055 56.4733 20.6629 52.3307C16.5203 48.1881 14.193 42.5695 14.193 36.711C14.193 30.8525 16.5203 25.234 20.6629 21.0914Z" fill="black"/>
<path d="M34.4121 21.3616C34.9619 21.3619 35.4926 21.5637 35.9036 21.9289C36.3147 22.2941 36.5776 22.7973 36.6426 23.3432L36.6571 23.6091L36.6547 37.2874L46.3166 46.9492C46.7034 47.3359 46.936 47.8504 46.9707 48.3963C47.0054 48.9421 46.8398 49.4819 46.5051 49.9145L46.3166 50.1272C45.9296 50.5137 45.4149 50.7458 44.8691 50.7801C44.3232 50.8143 43.7836 50.6483 43.3513 50.3132L43.1411 50.1272L32.8219 39.808C32.473 39.4588 32.2488 39.0044 32.1839 38.5151L32.1646 38.2202V23.6067C32.1646 23.3115 32.2227 23.0193 32.3356 22.7466C32.4486 22.4739 32.6141 22.2261 32.8228 22.0174C33.0315 21.8087 33.2793 21.6432 33.552 21.5302C33.8246 21.4173 34.1169 21.3592 34.4121 21.3592V21.3616Z" fill="black" fill-opacity="0.5"/>
</svg>
