<svg width="72" height="72" viewBox="0 0 72 72" fill="none" xmlns="http://www.w3.org/2000/svg">
<rect y="29" width="44" height="43" rx="21.5" fill="#1786FF"/>
<rect x="46" width="26" height="25" rx="12.5" fill="#7CE9FF"/>
<path d="M45.4568 56.7102H19.6404C19.6404 56.7102 19.1533 56.4666 19.1533 55.736V12.6275C19.1533 12.1404 19.3968 11.6533 19.6404 11.6533H31.8179L36.6889 18.9598C37.176 19.4469 37.6631 19.6904 38.3938 19.6904H57.1472C57.1472 19.6904 57.6343 19.934 57.6343 20.6646V32.8422C57.6343 33.8164 58.365 34.7906 59.5827 34.7906C60.8005 34.7906 61.5311 34.0599 61.5311 32.8422V20.6646C61.5311 18.4727 60.3134 16.7678 58.6085 16.2807V14.8194C58.6085 12.3839 56.6601 10.4355 54.2246 10.4355H35.4712L34.2534 8.73065C34.0099 8.24355 33.5228 8 32.7921 8H19.6404C17.4484 8 15.5 9.94841 15.5 12.6275V55.9795C15.5 58.415 17.2049 60.607 19.6404 60.607H45.4568C46.431 60.607 47.4052 59.8763 47.4052 58.6586C47.4052 57.4408 46.431 56.7102 45.4568 56.7102ZM53.981 14.0888C54.2246 14.0888 54.7117 14.3323 54.7117 14.8194V16.2807H39.6115L38.1502 14.3323H53.981V14.0888Z" fill="black"/>
<path d="M24.5078 35.2764V46.2362C24.5078 47.2104 25.2385 48.1846 26.4562 48.1846C27.674 48.1846 28.4046 47.4539 28.4046 46.2362V35.5199C28.4046 34.5457 27.674 33.5715 26.4562 33.5715C25.2385 33.5715 24.5078 34.3022 24.5078 35.2764ZM32.545 25.5343V46.2362C32.545 47.2104 33.2756 48.1846 34.4934 48.1846C35.7112 48.1846 36.4418 47.4539 36.4418 46.2362V25.5343C36.4418 24.5601 35.7112 23.5859 34.4934 23.5859C33.2756 23.5859 32.545 24.5601 32.545 25.5343ZM40.5822 31.3796V46.2362C40.5822 47.2104 41.3128 48.1846 42.5306 48.1846C43.7483 48.1846 44.479 47.4539 44.479 46.2362V31.3796C44.479 30.4054 43.7483 29.4312 42.5306 29.4312C41.3128 29.4312 40.5822 30.4054 40.5822 31.3796ZM63.2324 57.196L60.3098 52.812C61.284 51.8378 62.0146 50.8636 62.2582 49.6459C63.4759 45.7491 61.284 41.6087 57.3872 40.6345C55.4388 40.1474 53.4904 40.3909 51.7855 41.1216C50.0807 42.0958 48.8629 43.5571 48.1322 45.5055C46.9145 49.4023 49.1064 53.5427 53.0033 54.5169C53.7339 54.7604 54.4646 54.7604 55.1952 54.7604C55.9259 54.7604 56.9001 54.5169 57.6307 54.2733L60.7969 58.9008C61.0404 59.3879 61.5275 59.6315 62.0146 59.6315C62.2582 59.6315 62.5017 59.6315 62.9888 59.3879C63.4759 58.9008 63.7195 57.9266 63.2324 57.196ZM53.9775 51.5943C51.7855 50.8636 50.5678 48.4281 51.0549 46.2362C51.2984 45.262 52.0291 44.2878 53.0033 43.8007C53.7339 43.5571 54.221 43.3136 54.9517 43.3136C55.4388 43.3136 55.6823 43.3136 56.1694 43.5571C58.3614 44.2878 59.5791 46.7233 59.092 48.9152C58.8485 49.8894 58.1178 50.8636 57.1436 51.3507C56.1694 51.5943 55.1952 51.8378 53.9775 51.5943Z" fill="black" fill-opacity="0.5"/>
</svg>
