<svg width="72" height="72" viewBox="0 0 72 72" fill="none" xmlns="http://www.w3.org/2000/svg">
<rect y="29" width="44" height="43" rx="21.5" fill="#1786FF"/>
<rect x="46" width="26" height="25" rx="12.5" fill="#7CE9FF"/>
<path fill-rule="evenodd" clip-rule="evenodd" d="M36.7108 52.3526V42.1918L40.9451 46.4263V55.0397C40.9451 57.064 39.7482 57.8124 39.232 58.0406C39.0078 58.1407 38.6184 58.2687 38.1301 58.2687C37.4976 58.2687 36.694 58.054 35.8457 57.2839L32.4822 54.2273L23.3148 45.8926H17.6547C15.3342 45.8926 13.4453 43.9963 13.4453 41.6643V28.0784C13.444 25.7506 15.3264 23.8594 17.6547 23.8501H18.3691L22.5994 28.0804H17.6547L17.6756 41.6643L24.1316 41.6623C24.6586 41.6623 25.1668 41.8584 25.5572 42.2125L32.4822 48.5095L36.7108 52.3526Z" fill="#333333"/>
<path d="M55.4519 37.6271C55.4519 41.7501 54.3948 44.7241 53.2364 46.7598L56.1905 49.7142C57.8758 47.1159 59.5047 43.1757 59.5047 37.6251C59.5047 26.3504 52.5367 21.6927 52.2386 21.5007C52.016 21.3563 51.7668 21.2577 51.5056 21.2105C51.2444 21.1634 50.9764 21.1687 50.7173 21.2261C50.4584 21.2839 50.2134 21.3924 49.9967 21.5455C49.78 21.6986 49.5958 21.8932 49.4549 22.118C48.8494 23.0667 49.1101 24.3261 50.043 24.9568C50.2608 25.1044 55.4519 28.6957 55.4519 37.6271Z" fill="#333333" fill-opacity="0.5"/>
<path fill-rule="evenodd" clip-rule="evenodd" d="M32.4845 23.46L31.1529 24.6709L28.1587 21.6762L32.4864 17.7421L35.8456 14.6886C37.345 13.324 38.7118 13.7069 39.2298 13.9351C40.3064 14.413 40.9493 15.53 40.9493 16.9287V34.4673L36.7149 30.2329V19.6147L32.4845 23.46ZM52.9775 55.464C53.3904 55.877 53.9313 56.0834 54.4723 56.0834C55.0132 56.0834 55.5541 55.877 55.967 55.464C56.7928 54.6382 56.7928 53.3003 55.967 52.4745L20.0268 16.5344C19.201 15.7086 17.8632 15.7086 17.0373 16.5344C16.2115 17.3602 16.2115 18.698 17.0373 19.5239L52.9775 55.464Z" fill="#333333"/>
<path d="M44.1881 31.2486C44.3171 31.3157 47.3523 32.9147 47.3523 37.4754C47.3523 38.6512 47.1817 39.6277 46.9296 40.4473L50.0231 43.5411C50.8009 42.0215 51.403 40.0571 51.403 37.4774C51.403 30.2328 46.1572 27.6459 45.9353 27.5386V27.5406C45.6966 27.4278 45.438 27.3632 45.1743 27.3507C44.9106 27.3381 44.647 27.3777 44.3987 27.4673C44.1505 27.5569 43.9224 27.6947 43.7276 27.8727C43.5329 28.0508 43.3752 28.2656 43.2637 28.5048C42.7837 29.5195 43.1919 30.7314 44.1881 31.2486Z" fill="#333333" fill-opacity="0.5"/>
</svg>
