<svg width="72" height="72" viewBox="0 0 72 72" fill="none" xmlns="http://www.w3.org/2000/svg">
<rect y="29" width="44" height="43" rx="21.5" fill="#1786FF"/>
<rect x="46" width="26" height="25" rx="12.5" fill="#7CE9FF"/>
<path d="M16.2043 10.4434H39.6135C42.9307 10.4434 45.739 12.9783 46.1944 16.2935C51.3123 17.174 55.1172 21.6525 55.1172 26.8913C55.1172 32.8212 50.2929 37.6455 44.3631 37.6455C38.4333 37.6455 33.609 32.8212 33.609 26.8913C33.609 24.4099 34.478 21.9871 36.0558 20.0692C37.491 18.3248 39.4466 17.07 41.6094 16.4952C41.32 15.602 40.5289 14.9753 39.6135 14.9753H16.2043C15.0389 14.9753 14.0907 15.992 14.0907 17.2416V48.323C14.0907 49.5726 15.0389 50.5893 16.2043 50.5893H26.6817V46.9689C26.6817 44.5425 27.7993 42.2533 29.6943 40.7514L22.6779 26.6546C22.4081 26.1127 22.3656 25.4982 22.5581 24.9244C22.7505 24.3505 23.155 23.8859 23.6968 23.6163C24.8155 23.0595 26.1784 23.5166 26.7351 24.6351L33.9189 39.0679C34.1506 39.0476 34.3829 39.0374 34.6132 39.0374H38.6993C39.9488 39.0374 40.9654 40.0539 40.9654 41.3034C40.9654 42.5529 39.9488 43.5694 38.6993 43.5694H34.6132C32.7388 43.5694 31.2138 45.0944 31.2138 46.9688V53.6235C31.2138 55.4979 32.7388 57.0229 34.6132 57.0229H38.6993C39.9488 57.0229 40.9654 58.0394 40.9654 59.2889C40.9654 60.5384 39.9488 61.5549 38.6993 61.5549H34.6132C30.7965 61.5549 27.5324 58.8225 26.8236 55.1213H16.2043C12.5399 55.1213 9.55869 52.0716 9.55869 48.323V17.2417C9.55869 13.4931 12.5399 10.4434 16.2043 10.4434ZM38.1411 26.8914C38.1411 30.3222 40.9323 33.1134 44.3631 33.1134C47.794 33.1134 50.5851 30.3222 50.5851 26.8914C50.5851 23.4606 47.794 20.6694 44.3631 20.6694C40.9323 20.6694 38.1411 23.4606 38.1411 26.8914Z" fill="#040000"/>
<path d="M53.51 43.5701H49.9651C48.7156 43.5701 47.6991 42.5536 47.6991 41.3041C47.6991 40.0546 48.7156 39.0381 49.9651 39.0381H53.51C57.8834 39.0381 61.4414 42.5961 61.4414 46.9695V53.6242C61.4414 57.9976 57.8834 61.5556 53.51 61.5556H49.9651C48.7156 61.5556 47.6991 60.539 47.6991 59.2895C47.6991 58.0401 48.7156 57.0235 49.9651 57.0235H53.51C55.3844 57.0235 56.9094 55.4985 56.9094 53.6241V46.9695C56.9094 45.0951 55.3844 43.5701 53.51 43.5701Z" fill="#040000" fill-opacity="0.5"/>
</svg>
