<svg width="17" height="17" viewBox="0 0 17 17" fill="none" xmlns="http://www.w3.org/2000/svg">
<path d="M3.55176 12.0361C3.69865 11.9894 3.85623 11.988 4.00391 12.0322C4.15152 12.0764 4.28278 12.1641 4.38086 12.2842C5.12588 13.1903 7.0625 15.3262 8.76367 15.3262C10.4576 15.3261 12.3555 13.2103 13.0957 12.2969C13.1956 12.1738 13.331 12.0837 13.4824 12.04C13.6337 11.9966 13.7945 12.0014 13.9434 12.0527C14.9397 12.3955 17 13.2436 17 14.3877C16.9995 15.8967 12.8434 17 8.76367 17C4.68366 17 0.5 16.0243 0.5 14.1846C0.500613 13.1353 2.56458 12.3513 3.55176 12.0361ZM8.75 0C12.2022 0 15 2.63668 15 5.88965C14.9996 9.14262 10.7928 14 8.75 14C6.62354 14 2.50034 9.14262 2.5 5.88965C2.5 2.63766 5.29776 1.35521e-07 8.75 0ZM8.75 3.14062C7.41607 3.14063 6.33419 4.1601 6.33398 5.41699C6.33398 6.67405 7.41594 7.69434 8.75 7.69434C10.0851 7.69434 11.166 6.67405 11.166 5.41699C11.1658 4.1601 10.0839 3.14062 8.75 3.14062Z" fill="white"/>
</svg>
