<svg width="18" height="15" viewBox="0 0 18 15" fill="none" xmlns="http://www.w3.org/2000/svg">
<path d="M15 0C16.6569 1.93277e-07 18 1.34315 18 3V11.4004C17.9998 13.0571 16.6567 14.4004 15 14.4004H3C1.34328 14.4004 0.000211215 13.0571 0 11.4004V3C7.30168e-07 1.34315 1.34315 4.83192e-08 3 0H15ZM3.17773 2.12109C2.85868 1.85782 2.38497 1.90198 2.12109 2.2207C1.85725 2.53951 1.9024 3.01311 2.2207 3.27734L6.28516 6.63965L2.14453 11.1953C1.86651 11.5016 1.88865 11.9763 2.19434 12.2549C2.50069 12.5334 2.97523 12.5102 3.25391 12.2041L7.44141 7.59766L8.42773 8.41309C8.8901 8.79555 9.55916 8.79563 10.0215 8.41309L11.0068 7.59668L15.1953 12.2041C15.474 12.5102 15.9485 12.5324 16.2549 12.2539C16.5607 11.9752 16.5831 11.5006 16.3047 11.1943L12.1631 6.63965L16.2275 3.27734C16.5466 3.01325 16.5912 2.53981 16.3271 2.2207C16.063 1.90263 15.5903 1.85767 15.2715 2.12109L9.22363 7.125L3.17773 2.12109Z" fill="white"/>
</svg>
