<svg width="18" height="18" viewBox="0 0 18 18" fill="none" xmlns="http://www.w3.org/2000/svg">
<path d="M9.20041 11.4317C9.23793 11.425 9.27671 11.4179 9.32994 11.408L9.39695 11.3956L9.46542 11.383C9.57913 11.362 9.66625 11.3466 9.75416 11.3322C9.98678 11.2941 10.1936 11.2685 10.4026 11.2548L10.4079 11.2545C11.0009 11.2228 11.5553 11.3852 12.0561 11.7344C12.5368 12.0698 13.0361 12.6787 13.5726 13.566C13.986 14.2496 13.9925 14.9554 13.6257 15.6096C13.3114 16.17 12.7341 16.6737 11.9638 17.0984C11.1907 17.5246 10.292 17.6015 9.36934 17.3769C8.58029 17.1849 7.80407 16.7756 7.19587 16.2554C7.1691 16.2325 6.4726 15.6479 6.2456 15.4495C5.6737 14.9495 5.18419 14.4671 4.68635 13.8911C4.0766 13.1857 3.4901 12.3758 2.90993 11.4163C2.34872 10.4881 1.92524 9.63396 1.60253 8.80759C1.34242 8.14148 1.15992 7.53381 0.983061 6.8012C0.96403 6.72233 0.736744 5.73243 0.667532 5.4679C0.186132 3.64189 0.7475 1.9351 2.28321 1.0885C3.03188 0.675771 3.80929 0.466414 4.50238 0.504394C5.27552 0.54676 5.91071 0.89451 6.29154 1.52432C6.86592 2.47423 7.18137 3.21233 7.23333 3.76425C7.26949 4.14846 7.20085 4.51402 7.06046 4.84775C6.98631 5.02401 6.88884 5.1922 6.8096 5.29447C6.71492 5.46447 6.58117 5.62072 6.34768 5.85895C6.31345 5.89387 6.19523 6.01332 6.18574 6.02296C6.12228 6.08735 6.07373 6.13745 6.02767 6.1864C5.63548 6.60319 5.4808 6.89829 5.52812 7.19925C5.70827 7.89941 6.03321 8.64591 6.50445 9.43785C6.97231 10.2241 7.48256 10.8614 8.03363 11.351C8.29782 11.5318 8.57371 11.5442 9.20041 11.4317ZM13.9269 9.16662C13.9413 9.55907 13.6197 9.88831 13.2087 9.90202C12.7977 9.91572 12.4529 9.6087 12.4385 9.21625C12.3819 7.66835 11.5542 6.27136 10.235 5.42009C9.89428 5.2002 9.80472 4.7582 10.035 4.43285C10.2653 4.1075 10.7282 4.02199 11.0689 4.24186C12.7787 5.34513 13.8535 7.15936 13.9269 9.16662ZM17.4995 9.1376C17.5139 9.53005 17.1923 9.8593 16.7813 9.873C16.3703 9.88671 16.0255 9.57968 16.0111 9.18724C15.9051 6.28746 14.4125 3.72103 12.0452 2.36736C11.6924 2.16561 11.5776 1.72894 11.7889 1.39205C12.0002 1.05514 12.4575 0.945585 12.8104 1.14734C15.6242 2.75631 17.3764 5.76914 17.4995 9.1376Z" fill="white"/>
</svg>
